<svg xmlns="http://www.w3.org/2000/svg" width="189.4" height="110.8">
  <path d="M176.7 5.7A80 55.4 0 0 1 96.6 61 80 55.4 0 0 1 16.5 5.7a80 55.4 0 0 1 80-55.5 80 55.4 0 0 1 80.2 55.5Z" style="fill:#ef5b5b;fill-opacity:1;fill-rule:evenodd" transform="translate(-1.9 49.8)"/>
  <path d="M4-1h187.3l-2 15.8H1.9Z" style="fill:#23001e;fill-opacity:1;stroke:none;stroke-width:.96;stroke-linecap:round;stroke-linejoin:round;stroke-miterlimit:4;stroke-dasharray:none;stroke-dashoffset:0;stroke-opacity:1;paint-order:markers fill stroke" transform="translate(-1.9 49.8)"/>
  <g aria-label="STEERING COLUMNS GALORE, INC." style="font-style:normal;font-variant:normal;font-weight:400;font-stretch:normal;font-size:8px;line-height:25px;font-family:sans-serif;-inkscape-font-specification:&quot;sans-serif, Normal&quot;;font-variant-ligatures:normal;font-variant-caps:normal;font-variant-numeric:normal;font-feature-settings:normal;text-align:justify;letter-spacing:0;word-spacing:0;writing-mode:lr-tb;text-anchor:start;fill:#fff;fill-opacity:1;stroke:none">
    <path d="M50-7.2q-.5-.7-1-.7l-.4.2-.3.3q0 .3.4.8l.7.7.3.7v.8q-.2.9-.8 1.4-.7.6-1.6.6-.7 0-1.2-.5l.3-1.6q.5.7 1.1.7l.5-.1q.3-.2.3-.4 0-.4-.3-.8l-.9-1-.2-.7v-.7q.2-.8.8-1.2.6-.5 1.4-.5.6 0 1.2.3zM56.3-7.8h-1.2l-1 5.2h-1.5l1-5.2h-1.2l.2-1.3h4zM60.8-2.6h-3.3L58.8-9h3l-.2 1.3H60l-.3 1.3h1.4L61-5.3h-1.4l-.3 1.4H61zM66.4-2.6h-3.2L64.5-9h3l-.3 1.3h-1.6l-.3 1.3h1.4l-.2 1.2h-1.4l-.3 1.4h1.9zM72.8-2.6h-1.4l-.5-3.2-.7 3.2h-1.4L70.1-9H72l1 .2q.5.3.7.7v1q-.1.6-.5 1-.3.4-1 .7zM71-6.2q.7 0 .9-.2l.3-.7q.2-1-.6-1h-.3zM76.6-9H78l-1.3 6.4h-1.4zM84-2.6h-1.5l-.8-4-.8 4h-1.4L80.8-9h1.5l.9 4 .8-4h1.3zM91.8-5.2l-.5 1q-.3.7-1 1.2-.6.6-1.4.6-2.4 0-1.7-3.5.3-1.6 1.1-2.5.8-.8 2-.8 1.6 0 1.6 1.6l-1.3.5q.1-.8-.6-.8-.4 0-.6.2l-.4.5-.3 1.3-.2 1.4.1.6q.2.2.6.2.7 0 1-1.3h-.8l.2-1.3H92zM101.2-2.7q-.6.3-1.3.3-1.2 0-1.8-.9-.6-.9-.3-2.5.4-1.7 1.3-2.6 1-.8 2-.8.6 0 1.3.3l-.3 1.4-.6-.3h-.4q-.5 0-1 .4-.6.4-.8 1.6-.2 1.1.1 1.6.3.4 1 .4.4 0 1-.4zM104-5.9q.2-1.3.6-2l1-1q.6-.3 1.3-.3.7 0 1 .2l.6.6.3 1-.2 1.5q-.4 2-1.2 2.7-.8.8-1.8.8t-1.6-.8q-.4-.8 0-2.7zm1.5-.4v.5l-.3 1.3q0 .3.2.5t.5.2l.5-.2.4-.5.3-1.3.2-1.3-.2-.6q-.1-.2-.4-.2-.5 0-.8.4l-.4 1.2zM113.4-2.6h-3l1.3-6.5h1.4l-1 5.2h1.6zM120-4.4q-.1 1-.8 1.4-.7.6-1.6.6-1 0-1.5-.6-.4-.5-.2-1.5l.9-4.6h1.4l-.9 4.4v.7q.2.2.5.2l.6-.2.3-.7.8-4.4h1.5zM128.3-2.6h-1.4l.8-5.3-2.1 5.3h-1l.1-5.3-1.4 5.3h-1.4l2-6.5h1.8l-.2 4.3 1.7-4.3h1.7zM135.1-2.6h-1.5l-.8-4-.9 4h-1.3l1.3-6.5h1.5l.8 4 .9-4h1.3zM141.5-7.2q-.4-.7-.9-.7l-.4.2-.3.3q0 .3.4.8l.7.7.3.7v.8q-.2.9-.9 1.4-.6.6-1.5.6-.7 0-1.3-.5l.3-1.6q.6.7 1.2.7l.5-.1q.3-.2.3-.4 0-.4-.3-.8l-.9-1-.2-.7v-.7q.1-.8.8-1.2.6-.5 1.4-.5.6 0 1.2.3zM152-5.2q0 .4-.3 1-.4.7-1 1.2-.7.6-1.5.6-2.4 0-1.7-3.5.3-1.6 1.1-2.5.8-.8 2-.8 1.6 0 1.6 1.6l-1.3.5q.1-.8-.6-.8l-.6.2-.4.5-.3 1.3-.2 1.4q0 .4.2.6.1.2.5.2.7 0 1-1.3h-.8l.2-1.3h2.4zM158.5-2.6H157v-1h-1.7l-.5 1h-1.3l3.1-6.5h1.4zm-1.4-2v-2.9l-1.3 2.9zM163.7-2.6h-3L162-9h1.4l-1 5.2h1.6zM166.3-5.9q.3-1.3.7-2 .4-.6 1-1 .6-.3 1.3-.3.6 0 1 .2.3.2.5.6.3.4.3 1L171-6q-.4 2-1.2 2.7-.8.8-1.9.8-1 0-1.5-.8t0-2.7zm1.6-.4-.1.5-.2 1.3q0 .3.2.5t.5.2l.5-.2.4-.5.3-1.3.2-1.3-.2-.6q-.2-.2-.5-.2-.4 0-.7.4-.3.4-.4 1.2zM176.8-2.6h-1.4l-.5-3.2-.7 3.2h-1.4l1.3-6.5h1.9l1 .2q.5.3.6.7.2.5 0 1 0 .6-.4 1-.3.4-1 .7zM175-6.2q.6 0 .9-.2l.3-.7q.2-1-.6-1h-.3zM182.4-2.6h-3.2l1.3-6.5h3l-.2 1.3h-1.7l-.2 1.3h1.4l-.3 1.2h-1.4l-.3 1.4h1.9zM186.7-4 185-1.2h-.8l1.2-2.8zM193.8-9h1.4L194-2.7h-1.4zM201.2-2.6h-1.5l-.8-4-.8 4h-1.4L198-9h1.5l.8 4 .9-4h1.3zM207.6-2.7q-.5.3-1.2.3-1.2 0-1.8-.9-.6-.9-.3-2.5.4-1.7 1.3-2.6 1-.8 2-.8.6 0 1.3.3l-.3 1.4-.6-.3h-.4q-.5 0-1 .4-.6.4-.8 1.6-.2 1.1.1 1.6.3.4 1 .4.4 0 1-.4zM211-4q.3 0 .4.2l.2.6q-.1.3-.4.5-.2.3-.6.3-.3 0-.5-.3v-.5q0-.3.3-.6.2-.2.6-.2z" style="font-style:italic;font-variant:normal;font-weight:700;font-stretch:normal;font-size:10.6667px;font-family:&quot;Tw Cen MT Condensed&quot;;-inkscape-font-specification:&quot;Tw Cen MT Condensed, Bold Italic&quot;;text-align:center;letter-spacing:1.4px;text-anchor:middle;fill:#fff;fill-opacity:1" transform="translate(-34.1 62.3)"/>
  </g>
  <g style="fill:#000;fill-opacity:.694915">
    <g aria-label="Columns" style="font-style:normal;font-variant:normal;font-weight:400;font-stretch:normal;font-size:8px;line-height:25px;font-family:sans-serif;-inkscape-font-specification:&quot;sans-serif, Normal&quot;;font-variant-ligatures:normal;font-variant-caps:normal;font-variant-numeric:normal;font-feature-settings:normal;text-align:justify;letter-spacing:0;word-spacing:0;writing-mode:lr-tb;text-anchor:start;fill:#000;fill-opacity:.694915;stroke:none">
      <path d="M68 6q-2.4.9-5 .9-4.7 0-7.2-3.5-2.5-3.4-1.1-10 1.3-6.8 5.1-10.2 3.8-3.4 8-3.4 2.5 0 5 1.3l-1 5.4q-2-1.1-2.6-1.2-.6-.2-1.4-.2-2.2 0-4.2 1.8-2 1.9-3 6.4-.9 4.6.3 6.5 1.3 1.7 3.7 1.7 2 0 4.5-1.5zM72.3-2.4q1-4.7 3.4-7.1 2.4-2.5 6-2.5 3.5 0 5 2.4 1.3 2.4.4 7-1 4.6-3.3 7Q81.5 7 78 7q-3.7 0-5.1-2.4-1.5-2.4-.6-6.9zm9.6 0q.5-3 .4-4.2-.2-1.2-1.5-1.2-1.2 0-2 1.1-.6 1.1-1.1 3.7-.7 3.1-.5 4.4.1 1.3 1.5 1.3 1.2 0 2-1.2.6-1.1 1.2-4zM94.3 6.4h-5l5.5-27.9h5.1zM114.5-.1q-.6 3.1-3 5-2.3 2-5.5 2-3.4 0-5-2-1.5-1.9-.8-5.3l2.2-11.1h5.1L105.2-.2q-.5 2.9 1.7 2.9 2 0 2.5-2.7l2.3-11.5h5.1zM141.3 6.4h-5.1l2-9.8q.6-3.5-1.5-3.5-1 0-1.7 1-.8.8-1 2.4l-2 9.9h-5.2l2-10.1q.4-1.5 0-2.3-.5-.9-1.5-.9-.9 0-1.6 1-.8.9-1 2.3l-2 10h-5.1l3.5-18h5.1l-.7 3.5h.1q2.8-4 5.7-4 1.7 0 2.5 1.3 1 1.2.6 3.3h.1q1.2-2.1 3-3.3 1.8-1.2 3.4-1.2 1.8 0 2.6 1.6t.3 4.2zM154.3-11.5l-.7 3.3q1.6-2 3-3 1.3-.8 2.9-.8 1.9 0 2.7 1.6.8 1.6.2 4.3L160 6.4h-5L157-4q.3-1.3-.2-2-.4-.8-1.4-.8-2 0-2.7 3.3l-2 9.9h-5.1l3.6-18zM175.7-6.6q-1.7-1.6-3-1.6-1.5 0-1.7 1.1-.2.8 2 2 2.1 1.3 3 2.8.7 1.5.3 3.7-.5 2.4-2.5 4-2 1.5-4.5 1.5-1.9 0-3.1-.5-1.3-.5-2.6-1.6l2.9-3.7.4.3q1.6 1.5 2.7 1.5.7 0 1.2-.3.5-.4.6-1 .2-.5-.4-1.1-.6-.6-2.3-1.8-1.7-1.2-2.3-2.3-.7-1.2-.3-2.8.4-2.5 2.4-4 2-1.6 4.6-1.6 3 0 5.3 2z" style="font-style:italic;font-variant:normal;font-weight:700;font-stretch:normal;font-size:42.6667px;line-height:25px;font-family:&quot;Tw Cen MT Condensed&quot;;-inkscape-font-specification:&quot;Tw Cen MT Condensed, Bold Italic&quot;;text-align:center;letter-spacing:0;text-anchor:middle;fill:#000;fill-opacity:.694915" transform="translate(-24 40.6)"/>
    </g>
    <g aria-label="Galore" style="font-style:normal;font-variant:normal;font-weight:400;font-stretch:normal;font-size:8px;line-height:25px;font-family:sans-serif;-inkscape-font-specification:&quot;sans-serif, Normal&quot;;font-variant-ligatures:normal;font-variant-caps:normal;font-variant-numeric:normal;font-feature-settings:normal;text-align:justify;letter-spacing:0;word-spacing:0;writing-mode:lr-tb;text-anchor:start;fill:#000;fill-opacity:.694915;stroke:none">
      <path d="M86.9-4.1q-.3 1.6-1.7 4.3-1.3 2.6-4 4.6-2.6 2-5.7 2-9.6 0-6.8-13.7 1.3-6.5 4.5-10 3.1-3.4 7.7-3.4 6.6 0 6.7 6.5l-5.4 2.2q.6-3.5-2.4-3.5-1.4 0-2.3.8-1 .8-1.6 2.3-.5 1.4-1.2 5-.8 4.1-.9 5.7 0 1.5.6 2.3.7.8 2 .8 3.2 0 4.4-5.2h-3.4l1-5h9.3zM102.4 6.4h-5l.5-3q-2 3.5-5 3.5-2 0-3.2-2-1.1-2 0-7.3 1.9-9.6 7.2-9.6 2.9 0 3.3 3.7l.7-3.2h5zm-4.7-14Q96-7.6 95-3q-.6 2.7-.3 4 .2 1.2 1.4 1.2 1.1 0 1.8-1.1t1.2-3.6q.5-2.6.2-3.8-.2-1.3-1.5-1.3zM112 6.4h-5l5.5-27.9h5.2zM117.7-2.4q.9-4.7 3.3-7.1 2.4-2.5 6-2.5t5 2.4q1.3 2.4.4 7t-3.2 7Q126.8 7 123.3 7q-3.6 0-5.1-2.4-1.4-2.4-.5-6.9zm9.5 0q.6-3 .4-4.2-.1-1.2-1.4-1.2-1.3 0-2 1.1T123-3q-.6 3.1-.5 4.4.2 1.3 1.5 1.3t2-1.2q.6-1.1 1.2-4zM147.5-7l-1.7-.2q-3.6 0-4.4 3.8l-2 9.8h-5l3.5-18h4.8l-.9 4.3h.1q2.2-4.7 6.6-4.8zM163-1.5h-9q-.4 2.9-.1 3.8.3.9 1.6.9 1.7 0 2.2-2.1h4.5q-.8 2.8-2.8 4.3-2 1.5-5 1.5-3.6 0-5-2.5Q148 2 149-2.7q.8-4.2 3.4-6.8 2.7-2.5 6-2.5 2.5 0 3.8 1.4 1.3 1.4 1.4 3.5.1 2-.6 5.6zm-4.2-3q.5-2.2.2-3.3-.2-1-1.2-1-1.3 0-2 1t-1.2 3.4z" style="font-style:italic;font-variant:normal;font-weight:700;font-stretch:normal;font-size:42.6667px;font-family:&quot;Tw Cen MT Condensed&quot;;-inkscape-font-specification:&quot;Tw Cen MT Condensed, Bold Italic&quot;;text-align:center;letter-spacing:0;text-anchor:middle;fill:#000;fill-opacity:.694915" transform="translate(-23.6 90.6)"/>
    </g>
  </g>
  <g style="fill:#fff;fill-opacity:1">
    <g aria-label="Columns" style="font-style:normal;font-variant:normal;font-weight:400;font-stretch:normal;font-size:8px;line-height:25px;font-family:sans-serif;-inkscape-font-specification:&quot;sans-serif, Normal&quot;;font-variant-ligatures:normal;font-variant-caps:normal;font-variant-numeric:normal;font-feature-settings:normal;text-align:justify;letter-spacing:0;word-spacing:0;writing-mode:lr-tb;text-anchor:start;fill:#fff;fill-opacity:1;stroke:none">
      <path d="M68 6q-2.4.9-5 .9-4.7 0-7.2-3.5-2.5-3.4-1.1-10 1.3-6.8 5.1-10.2 3.8-3.4 8-3.4 2.5 0 5 1.3l-1 5.4q-2-1.1-2.6-1.2-.6-.2-1.4-.2-2.2 0-4.2 1.8-2 1.9-3 6.4-.9 4.6.3 6.5 1.3 1.7 3.7 1.7 2 0 4.5-1.5zM72.3-2.4q1-4.7 3.4-7.1 2.4-2.5 6-2.5 3.5 0 5 2.4 1.3 2.4.4 7-1 4.6-3.3 7Q81.5 7 78 7q-3.7 0-5.1-2.4-1.5-2.4-.6-6.9zm9.6 0q.5-3 .4-4.2-.2-1.2-1.5-1.2-1.2 0-2 1.1-.6 1.1-1.1 3.7-.7 3.1-.5 4.4.1 1.3 1.5 1.3 1.2 0 2-1.2.6-1.1 1.2-4zM94.3 6.4h-5l5.5-27.9h5.1zM114.5-.1q-.6 3.1-3 5-2.3 2-5.5 2-3.4 0-5-2-1.5-1.9-.8-5.3l2.2-11.1h5.1L105.2-.2q-.5 2.9 1.7 2.9 2 0 2.5-2.7l2.3-11.5h5.1zM141.3 6.4h-5.1l2-9.8q.6-3.5-1.5-3.5-1 0-1.7 1-.8.8-1 2.4l-2 9.9h-5.2l2-10.1q.4-1.5 0-2.3-.5-.9-1.5-.9-.9 0-1.6 1-.8.9-1 2.3l-2 10h-5.1l3.5-18h5.1l-.7 3.5h.1q2.8-4 5.7-4 1.7 0 2.5 1.3 1 1.2.6 3.3h.1q1.2-2.1 3-3.3 1.8-1.2 3.4-1.2 1.8 0 2.6 1.6t.3 4.2zM154.3-11.5l-.7 3.3q1.6-2 3-3 1.3-.8 2.9-.8 1.9 0 2.7 1.6.8 1.6.2 4.3L160 6.4h-5L157-4q.3-1.3-.2-2-.4-.8-1.4-.8-2 0-2.7 3.3l-2 9.9h-5.1l3.6-18zM175.7-6.6q-1.7-1.6-3-1.6-1.5 0-1.7 1.1-.2.8 2 2 2.1 1.3 3 2.8.7 1.5.3 3.7-.5 2.4-2.5 4-2 1.5-4.5 1.5-1.9 0-3.1-.5-1.3-.5-2.6-1.6l2.9-3.7.4.3q1.6 1.5 2.7 1.5.7 0 1.2-.3.5-.4.6-1 .2-.5-.4-1.1-.6-.6-2.3-1.8-1.7-1.2-2.3-2.3-.7-1.2-.3-2.8.4-2.5 2.4-4 2-1.6 4.6-1.6 3 0 5.3 2z" style="font-style:italic;font-variant:normal;font-weight:700;font-stretch:normal;font-size:42.6667px;line-height:25px;font-family:&quot;Tw Cen MT Condensed&quot;;-inkscape-font-specification:&quot;Tw Cen MT Condensed, Bold Italic&quot;;text-align:center;letter-spacing:0;text-anchor:middle;fill:#fff;fill-opacity:1" transform="translate(-21.4 39.3)"/>
    </g>
    <g aria-label="Galore" style="font-style:normal;font-variant:normal;font-weight:400;font-stretch:normal;font-size:8px;line-height:25px;font-family:sans-serif;-inkscape-font-specification:&quot;sans-serif, Normal&quot;;font-variant-ligatures:normal;font-variant-caps:normal;font-variant-numeric:normal;font-feature-settings:normal;text-align:justify;letter-spacing:0;word-spacing:0;writing-mode:lr-tb;text-anchor:start;fill:#fff;fill-opacity:1;stroke:none">
      <path d="M86.9-4.1q-.3 1.6-1.7 4.3-1.3 2.6-4 4.6-2.6 2-5.7 2-9.6 0-6.8-13.7 1.3-6.5 4.5-10 3.1-3.4 7.7-3.4 6.6 0 6.7 6.5l-5.4 2.2q.6-3.5-2.4-3.5-1.4 0-2.3.8-1 .8-1.6 2.3-.5 1.4-1.2 5-.8 4.1-.9 5.7 0 1.5.6 2.3.7.8 2 .8 3.2 0 4.4-5.2h-3.4l1-5h9.3zM102.4 6.4h-5l.5-3q-2 3.5-5 3.5-2 0-3.2-2-1.1-2 0-7.3 1.9-9.6 7.2-9.6 2.9 0 3.3 3.7l.7-3.2h5zm-4.7-14Q96-7.6 95-3q-.6 2.7-.3 4 .2 1.2 1.4 1.2 1.1 0 1.8-1.1t1.2-3.6q.5-2.6.2-3.8-.2-1.3-1.5-1.3zM112 6.4h-5l5.5-27.9h5.2zM117.7-2.4q.9-4.7 3.3-7.1 2.4-2.5 6-2.5t5 2.4q1.3 2.4.4 7t-3.2 7Q126.8 7 123.3 7q-3.6 0-5.1-2.4-1.4-2.4-.5-6.9zm9.5 0q.6-3 .4-4.2-.1-1.2-1.4-1.2-1.3 0-2 1.1T123-3q-.6 3.1-.5 4.4.2 1.3 1.5 1.3t2-1.2q.6-1.1 1.2-4zM147.5-7l-1.7-.2q-3.6 0-4.4 3.8l-2 9.8h-5l3.5-18h4.8l-.9 4.3h.1q2.2-4.7 6.6-4.8zM163-1.5h-9q-.4 2.9-.1 3.8.3.9 1.6.9 1.7 0 2.2-2.1h4.5q-.8 2.8-2.8 4.3-2 1.5-5 1.5-3.6 0-5-2.5Q148 2 149-2.7q.8-4.2 3.4-6.8 2.7-2.5 6-2.5 2.5 0 3.8 1.4 1.3 1.4 1.4 3.5.1 2-.6 5.6zm-4.2-3q.5-2.2.2-3.3-.2-1-1.2-1-1.3 0-2 1t-1.2 3.4z" style="font-style:italic;font-variant:normal;font-weight:700;font-stretch:normal;font-size:42.6667px;font-family:&quot;Tw Cen MT Condensed&quot;;-inkscape-font-specification:&quot;Tw Cen MT Condensed, Bold Italic&quot;;text-align:center;letter-spacing:0;text-anchor:middle;fill:#fff;fill-opacity:1" transform="translate(-21 89.3)"/>
    </g>
  </g>
</svg>
