<?xml version="1.0" encoding="UTF-8" standalone="no"?>
<svg
   xmlns:dc="http://purl.org/dc/elements/1.1/"
   xmlns:cc="http://creativecommons.org/ns#"
   xmlns:rdf="http://www.w3.org/1999/02/22-rdf-syntax-ns#"
   xmlns:svg="http://www.w3.org/2000/svg"
   xmlns="http://www.w3.org/2000/svg"
   id="svg8"
   version="1.1"
   viewBox="0 0 0.35277779 0.35277777"
   height="1pt"
   width="1pt">
  <defs
     id="defs2" />
  <metadata
     id="metadata5">
    <rdf:RDF>
      <cc:Work
         rdf:about="">
        <dc:format>image/svg+xml</dc:format>
        <dc:type
           rdf:resource="http://purl.org/dc/dcmitype/StillImage" />
        <dc:title></dc:title>
      </cc:Work>
    </rdf:RDF>
  </metadata>
  <g
     transform="translate(0,-296.64723)"
     id="layer1">
    <path
       id="path826"
       d="m 0.19362192,296.90425 c -9.0201e-4,-6.2e-4 -0.001804,-0.002 -0.002706,-0.003 -7.4868e-4,-0.002 -4.2395e-4,-0.003 0.002706,-0.005 0.001804,-9.1e-4 0.003608,-0.003 0.003608,-0.003 6.675e-4,-5.7e-4 0.001804,-9e-4 0.001804,-0.002 4.8709e-4,-3.9e-4 0.001804,-9.1e-4 0.002706,-0.002 8.3888e-4,-7e-4 0.001804,-0.002 0.001804,-0.002 3.2473e-4,-1.5e-4 0.001804,-9e-4 0.002706,-0.002 9.0201e-4,-9e-4 0.002706,-0.003 0.00451,-0.005 0.003608,-0.004 0.007216,-0.008 0.007216,-0.008 1.2628e-4,-3.6e-4 -0.003608,-0.002 -0.00451,-0.002 -0.002706,-10e-6 -0.00451,-8.3e-4 -0.008118,-0.003 -0.001804,-0.002 -0.001804,-0.002 -0.002706,7e-5 -0.001804,0.002 -0.002706,0.003 -0.00451,9e-4 -0.001804,-9e-4 -0.002706,-0.005 -0.001804,-0.005 1.9844e-4,-1.5e-4 5.7729e-4,-4.8e-4 8.5691e-4,-7.1e-4 l 5.0513e-4,-4.1e-4 -6.0435e-4,-5.2e-4 c -3.3374e-4,-2.9e-4 -0.002706,-0.003 -0.005412,-0.005 -0.006314,-0.005 -0.0117262,-0.0108 -0.0117262,-0.0116 0,-2.2e-4 -8.8398e-4,-6e-4 -0.00451,-0.002 l -0.002706,-9.1e-4 -0.003608,0.002 c -0.003608,0.002 -0.005412,0.002 -0.012087,0.004 -0.003608,8.4e-4 -0.005412,6.2e-4 -0.00451,-9.1e-4 5.1415e-4,-0.002 9.0202e-4,-0.006 0.001804,-0.009 4.2395e-4,-0.004 4.2395e-4,-0.004 -1.9844e-4,-0.004 -6.1337e-4,-1.6e-4 -9.0202e-4,-8.6e-4 -7.6671e-4,-0.002 1.7138e-4,-9e-4 -9.0202e-4,-0.002 -0.003608,-9e-4 -0.0137106,0.002 -0.0299469,-0.002 -0.0395083,-0.008 -8.1181e-4,-5.4e-4 -0.001804,-9e-4 -0.001804,-0.002 -6.7651e-4,-4.6e-4 -6.5847e-4,-4.5e-4 -0.0099222,-8.9e-4 -0.01001237,-4.8e-4 -0.01280862,-0.003 -0.01280862,-0.0106 v -0.003 l -6.4043e-4,-3.7e-4 c -3.5179e-4,-2e-4 -9.0201e-4,-6.3e-4 -0.001804,-9e-4 -8.4789e-4,-3.2e-4 -0.001804,-8.5e-4 -0.002706,-9e-4 -0.001804,-9e-4 -0.002706,-0.002 -0.0072161,-0.003 -0.001804,-5.6e-4 -0.0045101,-0.002 -0.0063141,-0.002 -9.0201e-4,-4.4e-4 -0.002706,-9e-4 -0.0036081,-9e-4 -9.0201e-4,-2.6e-4 -0.001804,-8.4e-4 -0.0036081,-0.002 -9.0202e-4,-8.1e-4 -0.0027061,-0.002 -0.0027061,-0.002 -3.8786e-4,-2.1e-4 -6.5847e-4,-4.2e-4 -6.0435e-4,-4.8e-4 1.1727e-4,-1.1e-4 0.0036081,0.002 0.0045101,0.002 9.0202e-4,7.5e-4 0.001804,9e-4 0.0036081,0.002 9.0202e-4,3.3e-4 0.0027061,8.3e-4 0.0036081,9e-4 9.0202e-4,4.9e-4 0.0036081,9e-4 0.0072161,0.002 0.002706,6e-4 0.0036081,9e-4 0.0054121,0.002 0.002706,9e-4 0.002706,0.002 0.0036081,0.002 1.8942e-4,0 3.5179e-4,8e-5 3.5179e-4,1.7e-4 0,8e-5 4.7806e-4,3.3e-4 9.0201e-4,5.5e-4 5.7729e-4,2.1e-4 9.0202e-4,4.2e-4 9.0202e-4,4.6e-4 9.02e-5,3e-5 1.5334e-4,-1e-5 1.5334e-4,-1e-4 0,-1.8e-4 -9.0202e-4,-6.8e-4 -9.0202e-4,-6.8e-4 -1.1726e-4,0 -8.0279e-4,-3.1e-4 -0.001804,-6.9e-4 -0.0045101,-0.003 -0.0063141,-0.004 -0.0090202,-0.004 -7.2161e-4,-1.5e-4 -9.0202e-4,-3e-4 -9.0202e-4,-3.6e-4 0,-7e-5 -2.4354e-4,-1.4e-4 -5.5023e-4,-1.6e-4 -3.0668e-4,-2e-5 -0.001804,-4.6e-4 -0.0036081,-9.1e-4 -0.001804,-4.9e-4 -0.0036081,-9e-4 -0.0045101,-0.002 -0.001804,-5.4e-4 -0.002706,-8.1e-4 -0.002706,-9e-4 -3.3375e-4,-2.7e-4 -0.0054121,-0.003 -0.0054121,-0.003 -4.51e-5,0 -5.5925e-4,-2.1e-4 -9.0202e-4,-4.8e-4 -0.001804,-6.7e-4 -0.002706,-9e-4 -0.0036081,-9e-4 -2.8864e-4,10e-6 -3.4277e-4,6e-5 -1.4432e-4,1.2e-4 0.0045101,0.002 0.0054121,0.002 0.001804,9e-4 -0.001804,-4.4e-4 -0.0036081,-8.7e-4 -0.0045101,-9e-4 l -0.001804,-1.4e-4 1.4432e-4,9.1e-4 c 1.6237e-4,9e-4 2.7963e-4,9e-4 -0.002706,0.002 -9.0202e-4,2.3e-4 -0.002706,4.8e-4 -0.002706,5.4e-4 -2.6158e-4,7e-5 -4.0591e-4,-2e-5 -4.7807e-4,-3.1e-4 -1.0824e-4,-4e-4 -2.0746e-4,-4.2e-4 -0.001804,-3e-4 -9.0201e-4,1.3e-4 -9.0201e-4,1.2e-4 -0.001804,-4.5e-4 -4.4199e-4,-9.1e-4 -0.001804,-0.0115 -9.0201e-4,-0.0118 8.118e-5,-7e-5 6.3141e-4,-2.9e-4 9.0201e-4,-4.8e-4 9.0202e-4,-3.3e-4 9.0202e-4,-5.6e-4 8.479e-4,-8.2e-4 -1.4433e-4,-9e-5 -1.3531e-4,-2.2e-4 2.706e-5,-4e-4 1.2628e-4,-1.7e-4 2.8864e-4,-2.6e-4 3.6982e-4,-2e-4 7.216e-5,4e-5 5.7729e-4,-2e-5 9.0202e-4,-1.4e-4 l 9.0201e-4,-2.1e-4 -0.001804,-9e-4 c -9.0201e-4,-6.7e-4 -0.001804,-9e-4 -0.002706,-9e-4 -7.577e-4,0 -0.001804,-3.5e-4 -0.0054121,-0.002 -0.001804,-8.3e-4 -0.001804,-9.1e-4 -0.0036081,-9.1e-4 -0.001804,-4e-4 -0.0045101,-0.002 -0.0045101,-0.003 0,-1.1e-4 -4.6905e-4,-7.1e-4 -9.0202e-4,-9e-4 -0.001804,-0.002 -0.001804,-0.004 -0.0027061,-0.005 -9.02e-5,-0.002 -1.0824e-4,-0.002 -7.2161e-4,-0.002 -9.0201e-4,-4.5e-4 -0.001804,-9e-4 -0.001804,-0.003 l -8.118e-5,-9e-4 9.0202e-4,-9e-4 c 9.0201e-4,-9e-4 0.001804,-9e-4 0.002706,-9e-4 8.8398e-4,2.3e-4 9.0202e-4,2.2e-4 0.001804,-5.5e-4 0.001804,-0.002 0.0045101,-0.003 0.0027061,-8.6e-4 -4.2395e-4,3.3e-4 -6.6749e-4,6.1e-4 -5.5925e-4,6.2e-4 1.0824e-4,0 6.8553e-4,-4.5e-4 9.0201e-4,-9e-4 9.0202e-4,-9e-4 9.0202e-4,-9e-4 0.002706,-9e-4 l 9.0202e-4,3e-5 9.922e-5,-7e-4 c 1.4432e-4,-9e-4 7.0357e-4,-9e-4 7.0357e-4,9e-5 v 8e-4 l 0.001804,4.3e-4 c 7.6671e-4,2.4e-4 0.001804,5.4e-4 0.001804,6.7e-4 8.118e-5,1.2e-4 6.2239e-4,3.7e-4 9.0202e-4,5.5e-4 7.3965e-4,2.1e-4 9.0201e-4,4.4e-4 9.0201e-4,7.6e-4 3.7885e-4,9e-4 0.0036081,0.002 0.0045101,6e-4 3.3374e-4,-3.2e-4 9.0201e-4,-9e-4 0.001804,-0.002 0.0054121,-0.005 0.0072161,-0.006 0.0072161,-0.007 -1.5334e-4,-2.5e-4 3.3375e-4,-0.002 7.0357e-4,-0.002 9.0202e-4,-9e-4 0.0063141,-0.002 0.0072161,-9e-4 0.002706,0.002 0.0036081,0.007 9.0201e-4,0.007 -7.2161e-4,1e-5 -9.0201e-4,3.7e-4 -0.0036081,0.003 -9.0201e-4,8.9e-4 -0.001804,0.002 -0.001804,0.002 -8.118e-5,5e-5 -9.0201e-4,8.7e-4 -0.001804,0.002 -9.0202e-4,9e-4 -0.001804,0.002 -0.0027061,0.003 -3.8786e-4,3.4e-4 -6.5847e-4,6.6e-4 -6.0435e-4,6.9e-4 5.412e-5,5e-5 8.479e-4,4.2e-4 0.001804,8.2e-4 l 0.001804,7.4e-4 0.001804,-9e-4 c 9.0201e-4,-5.7e-4 0.001804,-9e-4 0.001804,-9e-4 1.2628e-4,-10e-5 4.51e-4,-2.1e-4 7.0357e-4,-2.4e-4 2.6158e-4,-1e-5 7.8475e-4,-2e-4 9.0201e-4,-4.1e-4 4.6905e-4,-2.5e-4 7.2162e-4,-3e-4 7.7574e-4,-1.4e-4 3.608e-5,1.2e-4 2.4354e-4,2.2e-4 4.5101e-4,2.2e-4 6.1337e-4,0 9.0201e-4,7.6e-4 4.7806e-4,9e-4 -5.9533e-4,6.6e-4 -2.0746e-4,6.3e-4 0.001804,-1.3e-4 0.0036081,-0.002 0.0063141,-0.002 0.0095614,-7.4e-4 6.8553e-4,2.2e-4 9.0201e-4,3.7e-4 9.0201e-4,3.2e-4 3.8787e-4,-3.8e-4 0.0027061,9e-4 0.0054121,0.005 0.0027061,0.003 0.0027061,0.002 6.5848e-4,0.005 -0.001804,0.003 -0.001804,0.003 -0.001804,0.003 6.314e-5,6e-5 0.001804,6.6e-4 0.002706,9e-4 0.0045101,0.002 0.0234524,0.009 0.02453482,0.01 4.9611e-4,1.9e-4 0.001804,7.3e-4 0.002706,9e-4 0.002706,9.1e-4 0.001804,9.1e-4 0.008118,-0.002 0.007216,-0.004 0.008118,-0.004 0.011185,-0.004 0.006314,-4e-5 0.0115458,0.004 0.0130792,0.009 2.1648e-4,8.1e-4 9.0201e-4,0.004 0.001804,0.005 l 9.0201e-4,0.005 0.001804,5.5e-4 c 9.0201e-4,4.7e-4 0.0156049,0.006 0.0185815,0.007 l 9.0202e-4,4.2e-4 0.001804,-8.3e-4 c 0.00902,-0.005 0.0170481,-9.1e-4 0.0181305,0.008 l 1.0824e-4,9.1e-4 0.001804,6.5e-4 c 0.001804,7.9e-4 0.001804,7.9e-4 0.003608,-6e-5 0.001804,-9e-4 0.003608,-0.002 0.006314,-0.002 0.002706,-2.5e-4 0.0128988,-9e-5 0.0163265,2.5e-4 l 0.002706,2.5e-4 0.001804,-9e-4 c 9.0201e-4,-6.1e-4 0.002706,-0.002 0.003608,-0.002 l 0.001804,-9e-4 0.001804,4.5e-4 c 9.0201e-4,2.5e-4 0.001804,6.5e-4 0.002706,9e-4 l 8.93e-4,4.6e-4 9.0202e-4,-7.9e-4 c 7.0357e-4,-4.2e-4 0.001804,-9e-4 0.001804,-9e-4 3.9688e-4,-1.6e-4 0.001804,-7.8e-4 0.002706,-0.002 0.001804,-9e-4 0.002706,-0.002 0.0114556,-0.006 0.005412,-0.003 0.006314,-0.004 0.008118,-0.004 8.2985e-4,-3.8e-4 0.003608,-0.002 0.005412,-0.003 0.001804,-9e-4 0.00451,-0.002 0.005412,-0.003 0.001804,-6.9e-4 0.008118,-0.004 0.0148833,-0.007 0.002706,-9.1e-4 0.00451,-0.002 0.00451,-0.002 6.314e-5,0 6.7651e-4,-2.6e-4 0.001804,-5.8e-4 7.0357e-4,-3.3e-4 0.001804,-9.1e-4 0.003608,-0.002 9.0202e-4,-5.2e-4 0.003608,-0.002 0.005412,-0.003 0.001804,-9.1e-4 0.003608,-0.002 0.003608,-0.002 0.001804,0 0.007216,-0.005 0.009652,-0.007 0.001804,-0.002 0.003608,-0.004 0.001804,-0.003 -3.0668e-4,3.3e-4 -9.0201e-4,0.002 -0.002706,0.003 -0.001804,0.002 -0.003608,0.004 -0.005412,0.005 -0.001804,8.9e-4 -0.006314,0.004 -0.007216,0.004 -1.2628e-4,0 -5.5925e-4,1.8e-4 -9.0201e-4,4.1e-4 -4.0591e-4,2.2e-4 -0.001804,7.9e-4 -0.002706,9e-4 -9.0201e-4,4.9e-4 -0.002706,9e-4 -0.003608,0.002 -9.0202e-4,4.4e-4 -0.002706,9e-4 -0.003608,0.002 -9.0202e-4,4.7e-4 -0.002706,9e-4 -0.00451,0.002 -9.0201e-4,5.5e-4 -0.002706,9.1e-4 -0.003608,0.002 -7.7573e-4,3.7e-4 -0.001804,7.7e-4 -0.001804,8.8e-4 -2.7963e-4,1.2e-4 -6.4043e-4,3e-4 -8.028e-4,4e-4 -3.9688e-4,2.4e-4 -0.002706,9e-4 -0.003608,0.002 -6.9455e-4,2.8e-4 -0.001804,6e-4 -0.001804,7.2e-4 -1.8942e-4,10e-5 -9.0201e-4,4.1e-4 -0.001804,6.8e-4 -9.0201e-4,4.7e-4 -0.00451,0.002 -0.006314,0.003 -4.2394e-4,2.3e-4 -7.5769e-4,3.9e-4 -7.5769e-4,3.5e-4 0,-9e-5 -0.002706,9e-4 -0.003608,0.002 -3.3375e-4,1.7e-4 -9.0202e-4,6.3e-4 -0.001804,9.1e-4 -0.0113654,0.005 -0.0167775,0.008 -0.0203856,0.0108 -0.003608,0.003 -0.005412,0.004 -0.005412,0.003 0,-1.1e-4 1.1726e-4,-2e-4 2.6158e-4,-2e-4 5.2317e-4,0 0.001804,-8.5e-4 0.003608,-0.002 0.003608,-0.003 0.008118,-0.005 0.0211974,-0.0117 0.001804,-7.5e-4 0.00451,-0.002 0.006314,-0.004 0.003608,-0.002 0.00451,-0.003 0.0141617,-0.006 0.002706,-9e-4 0.005412,-0.003 0.006314,-0.003 7.7574e-4,-3.7e-4 0.003608,-0.002 0.006314,-0.003 0.002706,-9e-4 0.005412,-0.003 0.006314,-0.003 8.1181e-4,-3.8e-4 0.001804,-6.9e-4 0.001804,-6.9e-4 3.608e-5,0 8.7495e-4,-3.7e-4 0.001804,-8.2e-4 9.0202e-4,-4.6e-4 0.002706,-9e-4 0.002706,-0.002 0.002706,-9.1e-4 0.00451,-0.003 0.006314,-0.005 8.028e-4,-9e-4 0.002706,-0.004 0.00451,-0.005 0.002706,-0.003 0.003608,-0.004 0.003608,-0.005 0,-4.5e-4 0.001804,-0.003 0.002706,-0.004 0.001804,-9e-4 0.003608,-0.005 0.006314,-0.0112 0.003608,-0.008 0.005412,-0.0105 0.009201,-0.01 6.3141e-4,1.3e-4 9.0202e-4,3.1e-4 0.001804,4e-4 1.7139e-4,9e-5 7.126e-4,3.6e-4 9.0202e-4,6e-4 0.006314,0.003 0.007216,0.007 0.003608,0.0113 -0.001804,0.002 -0.002706,0.002 -0.006314,0.005 -0.005412,0.004 -0.006314,0.005 -0.00902,0.007 -6.0435e-4,7.2e-4 -9.0202e-4,0.002 -0.001804,0.002 -2.3453e-4,2.8e-4 -7.3965e-4,9e-4 -9.0202e-4,0.002 -3.8786e-4,5.1e-4 -8.2083e-4,8.8e-4 -9.0201e-4,8.5e-4 -1.9845e-4,-4e-5 -0.001804,0.002 -0.005412,0.005 -0.007216,0.009 -0.007216,0.008 -0.0276017,0.0172 -9.0201e-4,5.8e-4 -0.003608,0.002 -0.005412,0.003 -0.001804,6.6e-4 -0.003608,0.002 -0.005412,0.003 -0.001804,8e-4 -0.00451,0.002 -0.005412,0.003 -9.0202e-4,5.2e-4 -0.003608,0.002 -0.00451,0.002 -0.001804,7e-4 -0.003608,0.002 -0.00451,0.002 -9.0201e-4,4.6e-4 -0.002706,9.1e-4 -0.002706,0.002 -6.5847e-4,3.1e-4 -0.002706,9e-4 -0.00451,0.002 -0.001804,9e-4 -0.005412,0.003 -0.007216,0.004 -0.003608,0.002 -0.003608,0.002 -0.003608,0.002 0.003608,0.002 0.007216,0.003 0.009652,0.004 0.003608,9e-4 0.003608,9e-4 0.00451,0.006 1.353e-4,0.003 3.0668e-4,0.005 3.8786e-4,0.007 l 1.4433e-4,0.003 0.002706,9e-4 c 0.008118,0.003 0.0100124,0.006 0.0100124,0.0143 0,0.003 3.608e-5,0.003 5.0513e-4,0.004 9.0202e-4,0.002 0.001804,0.005 9.0202e-4,0.008 -1.9845e-4,0.002 -1.8041e-4,0.002 2.7962e-4,0.003 2.7061e-4,4.6e-4 5.5023e-4,9e-4 6.2239e-4,0.002 1.1726e-4,6.3e-4 2.7061e-4,8e-4 9.0202e-4,9e-4 0.001804,9e-4 0.002706,0.002 0.001804,0.005 l -3.8787e-4,8.9e-4 9.0202e-4,9e-4 c 5.8631e-4,5.8e-4 9.0201e-4,9e-4 9.0201e-4,9e-4 9.02e-6,10e-5 5.4121e-4,4.8e-4 9.0202e-4,8.6e-4 0.002706,9e-4 9.0201e-4,0.004 -9.0202e-4,0.002 -8.6593e-4,-4.4e-4 -0.001804,-5.8e-4 -0.003608,-6.8e-4 -6.1337e-4,-2e-5 -0.001804,-4.8e-4 -0.003608,-0.002 -0.003608,-0.002 -0.003608,-0.002 -0.00451,-5e-4 -0.001804,0.003 -0.005412,0.005 -0.007216,0.005 -2.1648e-4,0 -7.2161e-4,3.6e-4 -9.0202e-4,7.9e-4 -0.007216,0.008 -0.0112752,0.008 -0.0292253,-0.002 l -0.001804,-9.1e-4 -0.008118,0.008 c -0.00451,0.005 -0.008118,0.008 -0.008118,0.008 -9.922e-5,2.5e-4 -0.001804,0.002 -0.003608,0.005 -0.001804,0.002 -0.003608,0.005 -0.003608,0.005 -2.7061e-4,4e-4 -5.4121e-4,7.6e-4 -5.9534e-4,8.1e-4 -1.8942e-4,1.7e-4 -0.001804,0.003 -0.001804,0.003 -8.5691e-4,9e-4 -0.002706,0.002 -0.00451,8.8e-4 z m -0.0579996,-0.0773 c 0.002706,-2.7e-4 0.005412,-5.6e-4 0.006314,-6.3e-4 0.001804,-1.6e-4 0.001804,-1.5e-4 -6.6749e-4,-9e-4 -9.0202e-4,-4.8e-4 -0.002706,-9e-4 -0.003608,-0.002 -7.2161e-4,-3.3e-4 -0.001804,-6.7e-4 -0.001804,-7.7e-4 -9.0202e-4,-5e-4 -0.008118,-0.004 -0.008118,-0.004 -1.804e-4,-1.4e-4 -6.4043e-4,6e-5 -0.001804,7e-4 -0.003608,0.003 -0.00902,0.004 -0.011185,0.003 -9.0202e-4,-3.8e-4 1.804e-4,3.5e-4 0.001804,9e-4 0.002706,9e-4 0.003608,0.002 0.005412,0.003 0.002706,9e-4 0.006314,0.002 0.0130792,6.5e-4 z m -0.04897943,-0.0251 c 3.0668e-4,-6.4e-4 5.2317e-4,-9.1e-4 4.9611e-4,-9.1e-4 -3.608e-5,-2e-5 -8.8398e-4,-4.1e-4 -0.001804,-8.5e-4 -9.0201e-4,-4.5e-4 -0.002706,-9e-4 -0.0036081,-0.002 -7.7573e-4,-3.6e-4 -0.001804,-7.2e-4 -0.001804,-8e-4 -2.255e-4,-9e-5 -0.002706,-9e-4 -0.0063141,-0.003 -0.002706,-0.002 -0.0063141,-0.003 -0.0081181,-0.004 -9.0202e-4,-5.8e-4 -0.0027061,-0.002 -0.0036081,-0.002 -9.0201e-4,-5.7e-4 -0.0045101,-0.002 -0.0072161,-0.004 -5.5023e-4,-2.3e-4 -9.0201e-4,-3.7e-4 -9.0201e-4,-3.2e-4 -6.314e-5,5e-5 7.0357e-4,4.7e-4 0.001804,9e-4 0.001804,9e-4 0.0054121,0.003 0.0072161,0.004 5.4121e-4,3.2e-4 0.001804,0.002 0.0027061,0.003 0.0036081,0.004 0.0036081,0.004 0.0072161,0.005 9.0201e-4,6.6e-4 0.0027061,9e-4 0.0054121,0.002 0.002706,3.9e-4 0.0045101,9e-4 0.0054121,0.002 7.9378e-4,4.6e-4 0.001804,7.3e-4 0.0027061,9e-4 6.314e-5,1e-5 3.6081e-4,-4.9e-4 6.6749e-4,-9e-4 z m -0.02038555,-0.006 c -0.0027061,-0.003 -0.0045101,-0.005 -0.0054121,-0.005 -2.7963e-4,-1.4e-4 -0.001804,-9e-4 -0.0045101,-0.002 -0.0027061,-0.002 -0.0045101,-0.002 -0.0054121,-0.003 -0.001804,-9e-4 -0.0054121,-0.004 -0.0063141,-0.004 -1.804e-5,0 4.51e-5,3.8e-4 1.353e-4,8.6e-4 9.02e-5,4.7e-4 1.7139e-4,9e-4 1.8041e-4,0.002 0,4.2e-4 9.02e-5,7.5e-4 1.8942e-4,7.5e-4 1.0824e-4,0 3.0668e-4,3.1e-4 4.3297e-4,6.8e-4 l 2.4354e-4,6.8e-4 0.001804,-5e-5 c 0.0027061,-9e-5 0.0045101,7.4e-4 0.0072161,0.003 6.8554e-4,5.6e-4 0.001804,9e-4 0.001804,9e-4 2.7061e-4,1.3e-4 9.0202e-4,6.8e-4 0.001804,9e-4 6.1337e-4,5.2e-4 0.001804,9e-4 0.002706,0.002 7.2161e-4,3.6e-4 0.001804,9e-4 0.0027061,0.002 9.0201e-4,7.4e-4 0.0036081,0.002 0.0036081,0.002 4.51e-5,10e-6 -8.2083e-4,-8.3e-4 -0.001804,-0.002 z"
       style="fill:#000000;stroke-width:0.00020174" />
  </g>
</svg>
