<?xml version="1.0" encoding="UTF-8" standalone="no"?>
<svg
   xmlns:dc="http://purl.org/dc/elements/1.1/"
   xmlns:cc="http://creativecommons.org/ns#"
   xmlns:rdf="http://www.w3.org/1999/02/22-rdf-syntax-ns#"
   xmlns:svg="http://www.w3.org/2000/svg"
   xmlns="http://www.w3.org/2000/svg"
   viewBox="0 0 210 210"
   height="210"
   width="210"
   id="svg2"
   version="1.1">
  <metadata
     id="metadata8">
    <rdf:RDF>
      <cc:Work
         rdf:about="">
        <dc:format>image/svg+xml</dc:format>
        <dc:type
           rdf:resource="http://purl.org/dc/dcmitype/StillImage" />
        <dc:title></dc:title>
      </cc:Work>
    </rdf:RDF>
  </metadata>
  <defs
     id="defs6" />
  <flowRoot
     transform="translate(0,90)"
     style="font-style:normal;font-variant:normal;font-weight:normal;font-stretch:normal;font-size:10.66666698px;font-family:sans-serif;-inkscape-font-specification:'sans-serif, Normal';font-variant-ligatures:normal;font-variant-caps:normal;font-variant-numeric:normal;font-feature-settings:normal;text-align:start;letter-spacing:0px;word-spacing:0px;writing-mode:lr-tb;text-anchor:start;fill:#000000;fill-opacity:1;stroke:none"
     id="flowRoot4533"
     xml:space="preserve"><flowRegion
       id="flowRegion4535"><rect
         y="52.5"
         x="24.279661"
         height="16.652542"
         width="160.16949"
         id="rect4537" /></flowRegion><flowPara
       id="flowPara4539"></flowPara></flowRoot>  <flowRoot
     transform="translate(0,90)"
     style="font-style:normal;font-variant:normal;font-weight:normal;font-stretch:normal;font-size:37.33333206px;font-family:sans-serif;-inkscape-font-specification:'sans-serif, Normal';font-variant-ligatures:normal;font-variant-caps:normal;font-variant-numeric:normal;font-feature-settings:normal;text-align:center;letter-spacing:0px;word-spacing:0px;writing-mode:lr-tb;text-anchor:middle;fill:#000000;fill-opacity:1;stroke:none"
     id="flowRoot4541"
     xml:space="preserve"><flowRegion
       style="font-style:normal;font-variant:normal;font-weight:normal;font-stretch:normal;font-size:37.33333206px;font-family:sans-serif;-inkscape-font-specification:'sans-serif, Normal';font-variant-ligatures:normal;font-variant-caps:normal;font-variant-numeric:normal;font-feature-settings:normal;text-align:center;writing-mode:lr-tb;text-anchor:middle"
       id="flowRegion4543"><rect
         style="font-style:normal;font-variant:normal;font-weight:normal;font-stretch:normal;font-size:37.33333206px;font-family:sans-serif;-inkscape-font-specification:'sans-serif, Normal';font-variant-ligatures:normal;font-variant-caps:normal;font-variant-numeric:normal;font-feature-settings:normal;text-align:center;writing-mode:lr-tb;text-anchor:middle"
         y="52.754238"
         x="24.279661"
         height="16.271187"
         width="160.16949"
         id="rect4545" /></flowRegion><flowPara
       id="flowPara4547">Steering Columns Galore , INC.</flowPara></flowRoot>  <text
     id="text4621"
     y="176.69492"
     x="102.20339"
     style="font-style:normal;font-variant:normal;font-weight:normal;font-stretch:normal;font-size:10.66666698px;line-height:25px;font-family:sans-serif;-inkscape-font-specification:'sans-serif, Normal';font-variant-ligatures:normal;font-variant-caps:normal;font-variant-numeric:normal;font-feature-settings:normal;text-align:start;letter-spacing:0px;word-spacing:0px;writing-mode:lr-tb;text-anchor:start;fill:#000000;fill-opacity:1;stroke:none"
     xml:space="preserve"><tspan
       y="192.25977"
       x="102.20339"
       id="tspan4619" /></text>
  <g
     transform="translate(8.4184863,99.326797)"
     id="g4881">
    <path
       id="path4528"
       d="M 176.66626,5.673203 A 80.084747,55.423729 0 0 1 96.581512,61.096932 80.084747,55.423729 0 0 1 16.496765,5.673203 80.084747,55.423729 0 0 1 96.581512,-49.750526 80.084747,55.423729 0 0 1 176.66626,5.673203 Z"
       style="fill:#ef5b5b;fill-opacity:1;fill-rule:evenodd" />
    <path
       style="fill:#23001e;fill-opacity:1;stroke:none;stroke-width:0.95999998;stroke-linecap:round;stroke-linejoin:round;stroke-miterlimit:4;stroke-dasharray:none;stroke-dashoffset:0;stroke-opacity:1;paint-order:markers fill stroke"
       d="M 3.9120259,-0.93697841 H 191.2849 L 189.251,14.825742 H 1.8781274 Z"
       id="rect4530" />
    <g
       id="flowRoot4549"
       style="font-style:normal;font-variant:normal;font-weight:normal;font-stretch:normal;font-size:8px;line-height:25px;font-family:sans-serif;-inkscape-font-specification:'sans-serif, Normal';font-variant-ligatures:normal;font-variant-caps:normal;font-variant-numeric:normal;font-feature-settings:normal;text-align:justify;letter-spacing:0px;word-spacing:0px;writing-mode:lr-tb;text-anchor:start;fill:#ffffff;fill-opacity:1;stroke:none"
       transform="translate(-32.236687,12.537602)"
       aria-label="STEERING COLUMNS GALORE, INC.">
      <path
         id="path4884"
         style="font-style:italic;font-variant:normal;font-weight:bold;font-stretch:normal;font-size:10.66666698px;font-family:'Tw Cen MT Condensed';-inkscape-font-specification:'Tw Cen MT Condensed, Bold Italic';text-align:center;letter-spacing:1.39999998px;text-anchor:middle;fill:#ffffff;fill-opacity:1"
         d="m 49.955012,-7.245189 q -0.427084,-0.6510416 -0.9375,-0.6510416 -0.229167,0 -0.4375,0.1510416 -0.208334,0.1510417 -0.244792,0.3385417 -0.06771,0.3385417 0.40625,0.8020834 0.5,0.4739583 0.692708,0.75 0.197917,0.2708333 0.270834,0.640625 0.07813,0.3697917 -0.01042,0.8072917 -0.171875,0.859375 -0.833333,1.4114584 -0.65625,0.5520833 -1.520834,0.5520833 -0.708333,0 -1.286458,-0.5052083 l 0.307291,-1.5364584 q 0.510417,0.7083334 1.161459,0.7083334 0.291667,0 0.520833,-0.1614584 0.229167,-0.1614583 0.276042,-0.3958333 0.06771,-0.3489584 -0.348958,-0.7760417 -0.65625,-0.6875 -0.838542,-1.0208334 -0.177083,-0.3385417 -0.234375,-0.6770833 -0.05208,-0.34375 0.01563,-0.6927084 0.151042,-0.75 0.776042,-1.2395834 0.625,-0.4895833 1.4375,-0.4895833 0.614583,0 1.15625,0.3541667 z" />
      <path
         id="path4886"
         style="font-style:italic;font-variant:normal;font-weight:bold;font-stretch:normal;font-size:10.66666698px;font-family:'Tw Cen MT Condensed';-inkscape-font-specification:'Tw Cen MT Condensed, Bold Italic';text-align:center;letter-spacing:1.39999998px;text-anchor:middle;fill:#ffffff;fill-opacity:1"
         d="m 56.318554,-7.8128973 h -1.265625 l -1.046875,5.2395835 h -1.401042 l 1.046875,-5.2291668 H 52.36022 l 0.255209,-1.2760417 h 3.958333 z" />
      <path
         id="path4888"
         style="font-style:italic;font-variant:normal;font-weight:bold;font-stretch:normal;font-size:10.66666698px;font-family:'Tw Cen MT Condensed';-inkscape-font-specification:'Tw Cen MT Condensed, Bold Italic';text-align:center;letter-spacing:1.39999998px;text-anchor:middle;fill:#ffffff;fill-opacity:1"
         d="m 60.770637,-2.5733138 h -3.244792 l 1.302083,-6.5052085 h 3.041667 l -0.25,1.2552083 h -1.645833 l -0.265625,1.3229167 h 1.411458 l -0.244792,1.2083334 h -1.411458 l -0.286458,1.4375001 h 1.848958 z" />
      <path
         id="path4890"
         style="font-style:italic;font-variant:normal;font-weight:bold;font-stretch:normal;font-size:10.66666698px;font-family:'Tw Cen MT Condensed';-inkscape-font-specification:'Tw Cen MT Condensed, Bold Italic';text-align:center;letter-spacing:1.39999998px;text-anchor:middle;fill:#ffffff;fill-opacity:1"
         d="m 66.399803,-2.5733138 h -3.244791 l 1.302083,-6.5052085 h 3.041667 l -0.25,1.2552083 h -1.645834 l -0.265625,1.3229167 h 1.411459 l -0.244792,1.2083334 h -1.411458 l -0.286459,1.4375001 h 1.848959 z" />
      <path
         id="path4892"
         style="font-style:italic;font-variant:normal;font-weight:bold;font-stretch:normal;font-size:10.66666698px;font-family:'Tw Cen MT Condensed';-inkscape-font-specification:'Tw Cen MT Condensed, Bold Italic';text-align:center;letter-spacing:1.39999998px;text-anchor:middle;fill:#ffffff;fill-opacity:1"
         d="m 72.836263,-2.5733138 h -1.4375 l -0.484375,-3.2187501 h -0.02083 l -0.645833,3.2187501 h -1.401042 l 1.302084,-6.5052085 h 1.828125 q 0.546875,0 1.046875,0.21875 0.5,0.21875 0.635416,0.6822917 0.140625,0.4635416 0.04167,0.9635417 -0.119792,0.6041666 -0.458333,0.9947916 -0.338542,0.3854167 -0.96875,0.7031251 z m -1.869792,-3.5833335 q 0.6875,0 0.921875,-0.265625 0.234375,-0.2708333 0.317708,-0.6822916 0.1875,-0.9322917 -0.578125,-0.9322917 h -0.286458 z" />
      <path
         id="path4894"
         style="font-style:italic;font-variant:normal;font-weight:bold;font-stretch:normal;font-size:10.66666698px;font-family:'Tw Cen MT Condensed';-inkscape-font-specification:'Tw Cen MT Condensed, Bold Italic';text-align:center;letter-spacing:1.39999998px;text-anchor:middle;fill:#ffffff;fill-opacity:1"
         d="m 76.61647,-9.0785223 h 1.406251 l -1.302084,6.5052085 h -1.40625 z" />
      <path
         id="path4896"
         style="font-style:italic;font-variant:normal;font-weight:bold;font-stretch:normal;font-size:10.66666698px;font-family:'Tw Cen MT Condensed';-inkscape-font-specification:'Tw Cen MT Condensed, Bold Italic';text-align:center;letter-spacing:1.39999998px;text-anchor:middle;fill:#ffffff;fill-opacity:1"
         d="m 84.026889,-2.5733138 h -1.484375 l -0.833333,-4.1041668 h -0.02083 l -0.822917,4.1041668 h -1.364583 l 1.302083,-6.5156252 h 1.536458 l 0.822917,4.0416668 h 0.02604 l 0.807291,-4.0416668 h 1.333334 z" />
      <path
         id="path4898"
         style="font-style:italic;font-variant:normal;font-weight:bold;font-stretch:normal;font-size:10.66666698px;font-family:'Tw Cen MT Condensed';-inkscape-font-specification:'Tw Cen MT Condensed, Bold Italic';text-align:center;letter-spacing:1.39999998px;text-anchor:middle;fill:#ffffff;fill-opacity:1"
         d="m 91.755013,-5.1983139 q -0.08333,0.4166667 -0.411458,1.0729167 -0.328125,0.6510417 -1,1.1666667 -0.666667,0.515625 -1.4375,0.515625 -2.390625,0 -1.703125,-3.4375001 0.322917,-1.625 1.119792,-2.4843751 0.796875,-0.8645833 1.942708,-0.8645833 1.651042,0 1.666667,1.6197917 l -1.338542,0.5364584 q 0.135417,-0.8750001 -0.619792,-0.8750001 -0.328125,0 -0.572916,0.2083334 -0.244792,0.203125 -0.380209,0.5677083 -0.135416,0.3645834 -0.3125,1.2500001 -0.208333,1.0416667 -0.21875,1.4322917 -0.01042,0.3854166 0.15625,0.5833333 0.171875,0.1927084 0.505209,0.1927084 0.78125,0 1.088541,-1.2916668 h -0.864583 l 0.255208,-1.2604167 h 2.338542 z" />
      <path
         id="path4900"
         style="font-style:italic;font-variant:normal;font-weight:bold;font-stretch:normal;font-size:10.66666698px;font-family:'Tw Cen MT Condensed';-inkscape-font-specification:'Tw Cen MT Condensed, Bold Italic';text-align:center;letter-spacing:1.39999998px;text-anchor:middle;fill:#ffffff;fill-opacity:1"
         d="m 101.15397,-2.6774805 q -0.58333,0.234375 -1.239584,0.234375 -1.177083,0 -1.796875,-0.859375 -0.614583,-0.859375 -0.286458,-2.5052084 0.338542,-1.6979167 1.291667,-2.5520834 0.95312,-0.859375 1.99479,-0.859375 0.625,0 1.27083,0.3229166 l -0.27604,1.3645834 q -0.49479,-0.28125 -0.65104,-0.3177083 -0.15625,-0.036458 -0.34375,-0.036458 -0.55208,0 -1.0625,0.4583334 -0.505207,0.4583333 -0.729165,1.578125 -0.234375,1.1718751 0.07813,1.6250001 0.3125,0.4479167 0.91146,0.4479167 0.48958,0 1.13541,-0.3854167 z" />
      <path
         id="path4902"
         style="font-style:italic;font-variant:normal;font-weight:bold;font-stretch:normal;font-size:10.66666698px;font-family:'Tw Cen MT Condensed';-inkscape-font-specification:'Tw Cen MT Condensed, Bold Italic';text-align:center;letter-spacing:1.39999998px;text-anchor:middle;fill:#ffffff;fill-opacity:1"
         d="m 103.93939,-5.8597722 q 0.27604,-1.3697918 0.69792,-2.0104168 0.42708,-0.640625 0.98958,-0.9947917 0.5625,-0.3541666 1.3125,-0.3541666 0.61979,0 0.95833,0.2083333 0.33854,0.203125 0.58334,0.5989583 0.25,0.3906251 0.28645,0.9739584 0.0365,0.578125 -0.15625,1.5364584 -0.39583,1.9635417 -1.19791,2.7135417 -0.80209,0.7447917 -1.83854,0.7447917 -1.0573,0 -1.53646,-0.7708333 -0.47396,-0.7760417 -0.099,-2.6458334 z m 1.5625,-0.3958334 -0.0833,0.4166667 q -0.20313,1.0260417 -0.20313,1.3541667 0.005,0.3229167 0.1875,0.5104167 0.1875,0.1875 0.49479,0.1875 0.25,0 0.49479,-0.1822917 0.2448,-0.1822917 0.40105,-0.5520833 0.15625,-0.375 0.34895,-1.3281251 0.17188,-0.8541667 0.17188,-1.2135417 0,-0.3645833 -0.16667,-0.5885417 -0.16666,-0.2239583 -0.47396,-0.2239583 -0.44791,0 -0.72395,0.390625 -0.27605,0.3854167 -0.44792,1.2291667 z" />
      <path
         id="path4904"
         style="font-style:italic;font-variant:normal;font-weight:bold;font-stretch:normal;font-size:10.66666698px;font-family:'Tw Cen MT Condensed';-inkscape-font-specification:'Tw Cen MT Condensed, Bold Italic';text-align:center;letter-spacing:1.39999998px;text-anchor:middle;fill:#ffffff;fill-opacity:1"
         d="m 113.44877,-2.5733138 h -3.04167 l 1.30208,-6.5052085 h 1.39584 l -1.04688,5.2239585 h 1.64583 z" />
      <path
         id="path4906"
         style="font-style:italic;font-variant:normal;font-weight:bold;font-stretch:normal;font-size:10.66666698px;font-family:'Tw Cen MT Condensed';-inkscape-font-specification:'Tw Cen MT Condensed, Bold Italic';text-align:center;letter-spacing:1.39999998px;text-anchor:middle;fill:#ffffff;fill-opacity:1"
         d="m 120.03366,-4.4066472 q -0.18229,0.9166667 -0.83854,1.4427084 -0.65104,0.5208333 -1.625,0.5208333 -1.01042,0 -1.44792,-0.5364583 -0.4375,-0.5364584 -0.23437,-1.5364584 l 0.91146,-4.5625001 h 1.41666 l -0.86979,4.3385418 q -0.0885,0.4583333 0.0417,0.7083333 0.13021,0.2447917 0.45312,0.2447917 0.30209,0 0.52084,-0.2395834 0.22395,-0.2395833 0.30729,-0.6458333 l 0.88021,-4.4062501 h 1.42187 z" />
      <path
         id="path4908"
         style="font-style:italic;font-variant:normal;font-weight:bold;font-stretch:normal;font-size:10.66666698px;font-family:'Tw Cen MT Condensed';-inkscape-font-specification:'Tw Cen MT Condensed, Bold Italic';text-align:center;letter-spacing:1.39999998px;text-anchor:middle;fill:#ffffff;fill-opacity:1"
         d="m 128.25397,-2.5733138 h -1.33333 l 0.74479,-5.3229168 h -0.0208 l -2.05729,5.3229168 h -1 l 0.13021,-5.3541668 h -0.0208 l -1.43229,5.3541668 h -1.34375 l 1.97395,-6.5052085 h 1.77084 l -0.14584,4.2864584 h 0.0208 l 1.64583,-4.2864584 h 1.73958 z" />
      <path
         id="path4910"
         style="font-style:italic;font-variant:normal;font-weight:bold;font-stretch:normal;font-size:10.66666698px;font-family:'Tw Cen MT Condensed';-inkscape-font-specification:'Tw Cen MT Condensed, Bold Italic';text-align:center;letter-spacing:1.39999998px;text-anchor:middle;fill:#ffffff;fill-opacity:1"
         d="m 135.10189,-2.5733138 h -1.48437 l -0.83334,-4.1041668 h -0.0208 l -0.82292,4.1041668 h -1.36458 l 1.30208,-6.5156252 h 1.53646 l 0.82292,4.0416668 h 0.026 l 0.80729,-4.0416668 h 1.33333 z" />
      <path
         id="path4912"
         style="font-style:italic;font-variant:normal;font-weight:bold;font-stretch:normal;font-size:10.66666698px;font-family:'Tw Cen MT Condensed';-inkscape-font-specification:'Tw Cen MT Condensed, Bold Italic';text-align:center;letter-spacing:1.39999998px;text-anchor:middle;fill:#ffffff;fill-opacity:1"
         d="m 141.53835,-7.245189 q -0.42709,-0.6510416 -0.9375,-0.6510416 -0.22917,0 -0.4375,0.1510416 -0.20834,0.1510417 -0.24479,0.3385417 -0.0677,0.3385417 0.40625,0.8020834 0.5,0.4739583 0.6927,0.75 0.19792,0.2708333 0.27084,0.640625 0.0781,0.3697917 -0.0104,0.8072917 -0.17187,0.859375 -0.83333,1.4114584 -0.65625,0.5520833 -1.52084,0.5520833 -0.70833,0 -1.28645,-0.5052083 l 0.30729,-1.5364584 q 0.51041,0.7083334 1.16146,0.7083334 0.29166,0 0.52083,-0.1614584 0.22917,-0.1614583 0.27604,-0.3958333 0.0677,-0.3489584 -0.34896,-0.7760417 -0.65625,-0.6875 -0.83854,-1.0208334 -0.17708,-0.3385417 -0.23437,-0.6770833 -0.0521,-0.34375 0.0156,-0.6927084 0.15104,-0.75 0.77604,-1.2395834 0.625,-0.4895833 1.4375,-0.4895833 0.61459,0 1.15625,0.3541667 z" />
      <path
         id="path4914"
         style="font-style:italic;font-variant:normal;font-weight:bold;font-stretch:normal;font-size:10.66666698px;font-family:'Tw Cen MT Condensed';-inkscape-font-specification:'Tw Cen MT Condensed, Bold Italic';text-align:center;letter-spacing:1.39999998px;text-anchor:middle;fill:#ffffff;fill-opacity:1"
         d="m 152.06752,-5.1983139 q -0.0833,0.4166667 -0.41146,1.0729167 -0.32813,0.6510417 -1,1.1666667 -0.66667,0.515625 -1.4375,0.515625 -2.39063,0 -1.70313,-3.4375001 0.32292,-1.625 1.1198,-2.4843751 0.79687,-0.8645833 1.9427,-0.8645833 1.65105,0 1.66667,1.6197917 l -1.33854,0.5364584 q 0.13542,-0.8750001 -0.61979,-0.8750001 -0.32813,0 -0.57292,0.2083334 -0.24479,0.203125 -0.38021,0.5677083 -0.13541,0.3645834 -0.3125,1.2500001 -0.20833,1.0416667 -0.21875,1.4322917 -0.0104,0.3854166 0.15625,0.5833333 0.17188,0.1927084 0.50521,0.1927084 0.78125,0 1.08854,-1.2916668 h -0.86458 l 0.25521,-1.2604167 h 2.33854 z" />
      <path
         id="path4916"
         style="font-style:italic;font-variant:normal;font-weight:bold;font-stretch:normal;font-size:10.66666698px;font-family:'Tw Cen MT Condensed';-inkscape-font-specification:'Tw Cen MT Condensed, Bold Italic';text-align:center;letter-spacing:1.39999998px;text-anchor:middle;fill:#ffffff;fill-opacity:1"
         d="m 158.46751,-2.5733138 h -1.375 l -0.0104,-1.015625 h -1.71354 l -0.44271,1.015625 h -1.375 l 3.16146,-6.5052085 h 1.42709 z m -1.38021,-2.0677084 -0.005,-2.8385418 h -0.0208 l -1.22917,2.8385418 z" />
      <path
         id="path4918"
         style="font-style:italic;font-variant:normal;font-weight:bold;font-stretch:normal;font-size:10.66666698px;font-family:'Tw Cen MT Condensed';-inkscape-font-specification:'Tw Cen MT Condensed, Bold Italic';text-align:center;letter-spacing:1.39999998px;text-anchor:middle;fill:#ffffff;fill-opacity:1"
         d="m 163.7321,-2.5733138 h -3.04167 l 1.30209,-6.5052085 h 1.39583 l -1.04688,5.2239585 h 1.64584 z" />
      <path
         id="path4920"
         style="font-style:italic;font-variant:normal;font-weight:bold;font-stretch:normal;font-size:10.66666698px;font-family:'Tw Cen MT Condensed';-inkscape-font-specification:'Tw Cen MT Condensed, Bold Italic';text-align:center;letter-spacing:1.39999998px;text-anchor:middle;fill:#ffffff;fill-opacity:1"
         d="m 166.30658,-5.8597722 q 0.27604,-1.3697918 0.69791,-2.0104168 0.42709,-0.640625 0.98959,-0.9947917 0.5625,-0.3541666 1.3125,-0.3541666 0.61979,0 0.95833,0.2083333 0.33854,0.203125 0.58333,0.5989583 0.25,0.3906251 0.28646,0.9739584 0.0365,0.578125 -0.15625,1.5364584 -0.39583,1.9635417 -1.19792,2.7135417 -0.80208,0.7447917 -1.83854,0.7447917 -1.05729,0 -1.53646,-0.7708333 -0.47395,-0.7760417 -0.099,-2.6458334 z m 1.5625,-0.3958334 -0.0833,0.4166667 q -0.20312,1.0260417 -0.20312,1.3541667 0.005,0.3229167 0.1875,0.5104167 0.1875,0.1875 0.49479,0.1875 0.25,0 0.49479,-0.1822917 0.24479,-0.1822917 0.40104,-0.5520833 0.15625,-0.375 0.34896,-1.3281251 0.17188,-0.8541667 0.17188,-1.2135417 0,-0.3645833 -0.16667,-0.5885417 -0.16667,-0.2239583 -0.47396,-0.2239583 -0.44792,0 -0.72396,0.390625 -0.27604,0.3854167 -0.44791,1.2291667 z" />
      <path
         id="path4922"
         style="font-style:italic;font-variant:normal;font-weight:bold;font-stretch:normal;font-size:10.66666698px;font-family:'Tw Cen MT Condensed';-inkscape-font-specification:'Tw Cen MT Condensed, Bold Italic';text-align:center;letter-spacing:1.39999998px;text-anchor:middle;fill:#ffffff;fill-opacity:1"
         d="m 176.82377,-2.5733138 h -1.4375 l -0.48438,-3.2187501 h -0.0208 l -0.64584,3.2187501 h -1.40104 l 1.30209,-6.5052085 h 1.82812 q 0.54688,0 1.04688,0.21875 0.5,0.21875 0.63541,0.6822917 0.14063,0.4635416 0.0417,0.9635417 -0.11979,0.6041666 -0.45833,0.9947916 -0.33855,0.3854167 -0.96875,0.7031251 z m -1.8698,-3.5833335 q 0.6875,0 0.92188,-0.265625 0.23437,-0.2708333 0.31771,-0.6822916 0.1875,-0.9322917 -0.57813,-0.9322917 h -0.28646 z" />
      <path
         id="path4924"
         style="font-style:italic;font-variant:normal;font-weight:bold;font-stretch:normal;font-size:10.66666698px;font-family:'Tw Cen MT Condensed';-inkscape-font-specification:'Tw Cen MT Condensed, Bold Italic';text-align:center;letter-spacing:1.39999998px;text-anchor:middle;fill:#ffffff;fill-opacity:1"
         d="m 182.41647,-2.5733138 h -3.24479 l 1.30208,-6.5052085 h 3.04167 l -0.25,1.2552083 h -1.64584 l -0.26562,1.3229167 h 1.41146 l -0.2448,1.2083334 h -1.41145 l -0.28646,1.4375001 h 1.84896 z" />
      <path
         id="path4926"
         style="font-style:italic;font-variant:normal;font-weight:bold;font-stretch:normal;font-size:10.66666698px;font-family:'Tw Cen MT Condensed';-inkscape-font-specification:'Tw Cen MT Condensed, Bold Italic';text-align:center;letter-spacing:1.39999998px;text-anchor:middle;fill:#ffffff;fill-opacity:1"
         d="m 186.66022,-3.9899805 -1.61979,2.7708334 h -0.8073 l 1.20313,-2.7708334 z" />
      <path
         id="path4928"
         style="font-style:italic;font-variant:normal;font-weight:bold;font-stretch:normal;font-size:10.66666698px;font-family:'Tw Cen MT Condensed';-inkscape-font-specification:'Tw Cen MT Condensed, Bold Italic';text-align:center;letter-spacing:1.39999998px;text-anchor:middle;fill:#ffffff;fill-opacity:1"
         d="m 193.80398,-9.0785223 h 1.40625 l -1.30208,6.5052085 h -1.40625 z" />
      <path
         id="path4930"
         style="font-style:italic;font-variant:normal;font-weight:bold;font-stretch:normal;font-size:10.66666698px;font-family:'Tw Cen MT Condensed';-inkscape-font-specification:'Tw Cen MT Condensed, Bold Italic';text-align:center;letter-spacing:1.39999998px;text-anchor:middle;fill:#ffffff;fill-opacity:1"
         d="m 201.21439,-2.5733138 h -1.48438 l -0.83333,-4.1041668 h -0.0208 l -0.82291,4.1041668 h -1.36459 l 1.30209,-6.5156252 h 1.53646 l 0.82291,4.0416668 h 0.026 l 0.8073,-4.0416668 h 1.33333 z" />
      <path
         id="path4932"
         style="font-style:italic;font-variant:normal;font-weight:bold;font-stretch:normal;font-size:10.66666698px;font-family:'Tw Cen MT Condensed';-inkscape-font-specification:'Tw Cen MT Condensed, Bold Italic';text-align:center;letter-spacing:1.39999998px;text-anchor:middle;fill:#ffffff;fill-opacity:1"
         d="m 207.64563,-2.6774805 q -0.58333,0.234375 -1.23958,0.234375 -1.17708,0 -1.79687,-0.859375 -0.61459,-0.859375 -0.28646,-2.5052084 0.33854,-1.6979167 1.29166,-2.5520834 0.95313,-0.859375 1.9948,-0.859375 0.625,0 1.27083,0.3229166 l -0.27604,1.3645834 q -0.49479,-0.28125 -0.65104,-0.3177083 -0.15625,-0.036458 -0.34375,-0.036458 -0.55209,0 -1.0625,0.4583334 -0.50521,0.4583333 -0.72917,1.578125 -0.23438,1.1718751 0.0781,1.6250001 0.3125,0.4479167 0.91146,0.4479167 0.48959,0 1.13542,-0.3854167 z" />
      <path
         id="path4934"
         style="font-style:italic;font-variant:normal;font-weight:bold;font-stretch:normal;font-size:10.66666698px;font-family:'Tw Cen MT Condensed';-inkscape-font-specification:'Tw Cen MT Condensed, Bold Italic';text-align:center;letter-spacing:1.39999998px;text-anchor:middle;fill:#ffffff;fill-opacity:1"
         d="m 210.95189,-3.9795639 q 0.3125,0 0.4948,0.2239584 0.18229,0.2239583 0.11979,0.5416667 -0.0677,0.3177083 -0.33854,0.546875 -0.27084,0.2239583 -0.58334,0.2239583 -0.31771,0 -0.5,-0.2239583 -0.18229,-0.2291667 -0.11458,-0.546875 0.0625,-0.3177084 0.33333,-0.5416667 0.27084,-0.2239584 0.58854,-0.2239584 z" />
    </g>
    <g
       id="g4808"
       style="fill:#000000;fill-opacity:0.69491523"
       transform="translate(-13.630347,-54.708159)">
      <g
         id="flowRoot4549-5-0"
         style="font-style:normal;font-variant:normal;font-weight:normal;font-stretch:normal;font-size:8px;line-height:25px;font-family:sans-serif;-inkscape-font-specification:'sans-serif, Normal';font-variant-ligatures:normal;font-variant-caps:normal;font-variant-numeric:normal;font-feature-settings:normal;text-align:justify;letter-spacing:0px;word-spacing:0px;writing-mode:lr-tb;text-anchor:start;fill:#000000;fill-opacity:0.69491523;stroke:none"
         transform="translate(-8.4961294,45.585678)"
         aria-label="Columns
">
        <path
           id="path4937"
           style="font-style:italic;font-variant:normal;font-weight:bold;font-stretch:normal;font-size:42.66666794px;line-height:25px;font-family:'Tw Cen MT Condensed';-inkscape-font-specification:'Tw Cen MT Condensed, Bold Italic';text-align:center;letter-spacing:0px;text-anchor:middle;fill:#000000;fill-opacity:0.69491523"
           d="m 67.948241,5.9424207 q -2.333334,0.9375 -4.958334,0.9375 -4.708333,0 -7.1875,-3.4375001 -2.458333,-3.43750007 -1.145833,-10.0208336 1.354166,-6.791667 5.166667,-10.208334 3.8125,-3.4375 7.979167,-3.4375 2.5,0 5.083333,1.291667 l -1.104167,5.458333 q -1.979166,-1.125 -2.604166,-1.270833 -0.625,-0.145833 -1.375,-0.145833 -2.208334,0 -4.250001,1.833333 -2.020833,1.833334 -2.916666,6.3125003 -0.9375,4.6875002 0.3125,6.50000022 1.25,1.79166668 3.645833,1.79166668 1.958333,0 4.541667,-1.54166667 z" />
        <path
           id="path4939"
           style="font-style:italic;font-variant:normal;font-weight:bold;font-stretch:normal;font-size:42.66666794px;line-height:25px;font-family:'Tw Cen MT Condensed';-inkscape-font-specification:'Tw Cen MT Condensed, Bold Italic';text-align:center;letter-spacing:0px;text-anchor:middle;fill:#000000;fill-opacity:0.69491523"
           d="m 72.323242,-2.3909129 q 0.9375,-4.6666668 3.354166,-7.1458335 2.416667,-2.4999996 5.958334,-2.4999996 3.583333,0 4.979167,2.4374996 1.395833,2.4375001 0.458333,7.0833335 -0.895833,4.5416668 -3.25,6.9791669 -2.354167,2.4166667 -5.833333,2.4166667 -3.666667,0 -5.125001,-2.375 -1.4375,-2.3958334 -0.541666,-6.8958336 z m 9.541667,-0.083333 q 0.583333,-2.9375001 0.416666,-4.1250001 -0.145833,-1.2083334 -1.458333,-1.2083334 -1.208333,0 -1.9375,1.125 -0.729167,1.1250001 -1.229167,3.6458335 -0.625,3.1458334 -0.479167,4.4375001 0.166667,1.2916667 1.500001,1.2916667 1.270833,0 1.9375,-1.1458334 0.666666,-1.16666666 1.25,-4.0208334 z" />
        <path
           id="path4941"
           style="font-style:italic;font-variant:normal;font-weight:bold;font-stretch:normal;font-size:42.66666794px;line-height:25px;font-family:'Tw Cen MT Condensed';-inkscape-font-specification:'Tw Cen MT Condensed, Bold Italic';text-align:center;letter-spacing:0px;text-anchor:middle;fill:#000000;fill-opacity:0.69491523"
           d="m 94.344074,6.3590874 h -5.125 l 5.5625,-27.8125004 h 5.125 z" />
        <path
           id="path4943"
           style="font-style:italic;font-variant:normal;font-weight:bold;font-stretch:normal;font-size:42.66666794px;line-height:25px;font-family:'Tw Cen MT Condensed';-inkscape-font-specification:'Tw Cen MT Condensed, Bold Italic';text-align:center;letter-spacing:0px;text-anchor:middle;fill:#000000;fill-opacity:0.69491523"
           d="m 114.51074,-0.12007947 q -0.625,3.14583347 -2.95833,5.08333347 -2.33334,1.9166667 -5.52084,1.9166667 -3.45833,0 -5.02083,-1.9166667 -1.541666,-1.9375 -0.85417,-5.39583348 l 2.22917,-11.08333352 h 5.125 l -2.27083,11.35416686 q -0.58334,2.85416674 1.625,2.85416674 2,0 2.54166,-2.68750007 l 2.3125,-11.52083353 h 5.08334 z" />
        <path
           id="path4945"
           style="font-style:italic;font-variant:normal;font-weight:bold;font-stretch:normal;font-size:42.66666794px;line-height:25px;font-family:'Tw Cen MT Condensed';-inkscape-font-specification:'Tw Cen MT Condensed, Bold Italic';text-align:center;letter-spacing:0px;text-anchor:middle;fill:#000000;fill-opacity:0.69491523"
           d="m 141.28158,6.3590874 h -5.08333 l 1.9375,-9.729167 q 0.70833,-3.5000001 -1.4375,-3.5000001 -0.97917,0 -1.72917,0.8958334 -0.75,0.8958333 -1.0625,2.4375001 l -1.97917,9.8958336 h -5.08333 l 2.02083,-10.0625003 q 0.29167,-1.5000001 -0.125,-2.3333334 -0.39583,-0.8333334 -1.41666,-0.8333334 -0.875,0 -1.64584,0.9166667 -0.77083,0.9166667 -1.04166,2.3333334 l -2,9.979167 h -5.08334 l 3.58334,-17.8750004 h 5.08333 l -0.6875,3.375 h 0.0833 q 2.8125,-3.895833 5.6875,-3.895833 1.66667,0 2.54167,1.229166 0.89583,1.2083336 0.60417,3.291667 h 0.0833 q 1.20833,-2.0833334 2.97917,-3.291667 1.77083,-1.229166 3.4375,-1.229166 1.75,0 2.54166,1.645833 0.8125,1.6249999 0.29167,4.2083333 z" />
        <path
           id="path4947"
           style="font-style:italic;font-variant:normal;font-weight:bold;font-stretch:normal;font-size:42.66666794px;line-height:25px;font-family:'Tw Cen MT Condensed';-inkscape-font-specification:'Tw Cen MT Condensed, Bold Italic';text-align:center;letter-spacing:0px;text-anchor:middle;fill:#000000;fill-opacity:0.69491523"
           d="m 154.26075,-11.515913 -0.66667,3.2916666 h 0.0833 q 1.5625,-1.9791666 2.89584,-2.8958336 1.35416,-0.916666 2.89583,-0.916666 1.89583,0 2.70833,1.645833 0.8125,1.6249999 0.27084,4.3333334 l -2.47917,12.416667 h -5.04167 l 2.0625,-10.3333337 q 0.27084,-1.3333333 -0.14583,-2.0833333 -0.39583,-0.7708334 -1.39583,-0.7708334 -2.125,0 -2.79167,3.2916668 l -1.97917,9.8958336 h -5.08333 l 3.58333,-17.8750004 z" />
        <path
           id="path4949"
           style="font-style:italic;font-variant:normal;font-weight:bold;font-stretch:normal;font-size:42.66666794px;line-height:25px;font-family:'Tw Cen MT Condensed';-inkscape-font-specification:'Tw Cen MT Condensed, Bold Italic';text-align:center;letter-spacing:0px;text-anchor:middle;fill:#000000;fill-opacity:0.69491523"
           d="m 175.71908,-6.578413 q -1.75,-1.6458334 -3.04167,-1.6458334 -1.45833,0 -1.6875,1.1458334 -0.14583,0.75 2,2.0208334 2.14583,1.25 2.9375,2.7708334 0.79167,1.52083337 0.375,3.6458334 -0.47917,2.3958334 -2.45833,3.9583335 -1.97917,1.5625 -4.5625,1.5625 -1.83334,0 -3.10417,-0.5 -1.25,-0.4791667 -2.58333,-1.5625 l 2.89583,-3.7083335 q 0.16667,0.1041667 0.41667,0.3333334 1.60416,1.5 2.72916,1.5 0.6875,0 1.1875,-0.375 0.5,-0.3958333 0.625,-0.9791667 0.10417,-0.5208333 -0.45833,-1.10416669 -0.54167,-0.60416668 -2.27083,-1.79166671 -1.70834,-1.1875 -2.35417,-2.3333334 -0.64583,-1.1666667 -0.3125,-2.7916668 0.47917,-2.4583334 2.45833,-4.0208333 1.97917,-1.583333 4.60417,-1.583333 2.91667,0 5.27083,1.979166 z" />
      </g>
      <g
         id="flowRoot4549-5-3-9"
         style="font-style:normal;font-variant:normal;font-weight:normal;font-stretch:normal;font-size:8px;line-height:25px;font-family:sans-serif;-inkscape-font-specification:'sans-serif, Normal';font-variant-ligatures:normal;font-variant-caps:normal;font-variant-numeric:normal;font-feature-settings:normal;text-align:justify;letter-spacing:0px;word-spacing:0px;writing-mode:lr-tb;text-anchor:start;fill:#000000;fill-opacity:0.69491523;stroke:none"
         transform="translate(-8.0491204,95.597983)"
         aria-label="Galore
">
        <path
           id="path4952"
           style="font-style:italic;font-variant:normal;font-weight:bold;font-stretch:normal;font-size:42.66666794px;font-family:'Tw Cen MT Condensed';-inkscape-font-specification:'Tw Cen MT Condensed, Bold Italic';text-align:center;letter-spacing:0px;text-anchor:middle;fill:#000000;fill-opacity:0.69491523"
           d="m 86.885741,-4.1409129 q -0.333333,1.6666667 -1.645833,4.29166677 -1.3125,2.60416673 -4,4.66666683 -2.666667,2.0625 -5.75,2.0625 -9.562501,0 -6.8125,-13.7500004 1.291666,-6.5000003 4.479166,-9.9375003 3.1875,-3.458333 7.770834,-3.458333 6.604167,0 6.666667,6.479166 l -5.354167,2.145834 q 0.541667,-3.5 -2.479167,-3.5 -1.3125,0 -2.291667,0.833333 -0.979166,0.8125 -1.520833,2.270834 -0.541667,1.458333 -1.25,4.9999997 -0.833333,4.1666667 -0.875,5.7291668 -0.04167,1.5416667 0.625,2.3333334 0.6875,0.7708334 2.020833,0.7708334 3.125001,0 4.354167,-5.1666669 h -3.458333 l 1.020833,-5.0416668 h 9.354167 z" />
        <path
           id="path4954"
           style="font-style:italic;font-variant:normal;font-weight:bold;font-stretch:normal;font-size:42.66666794px;font-family:'Tw Cen MT Condensed';-inkscape-font-specification:'Tw Cen MT Condensed, Bold Italic';text-align:center;letter-spacing:0px;text-anchor:middle;fill:#000000;fill-opacity:0.69491523"
           d="M 102.40657,6.3590874 H 97.344074 L 97.948241,3.338254 h -0.08333 q -1.958334,3.5416667 -4.895834,3.5416667 -2.083333,0 -3.25,-2.0208334 -1.145833,-2.0208334 -0.104167,-7.2500002 1.937501,-9.6458331 7.270834,-9.6458331 2.895833,0 3.270829,3.7083329 h 0.0833 l 0.64583,-3.1874999 h 5.10417 z M 97.739908,-7.5575797 q -1.833334,0 -2.75,4.5625001 -0.541667,2.72916679 -0.291667,3.97916683 0.25,1.22916667 1.416667,1.22916667 1.104166,0 1.791666,-1.125 0.708334,-1.12500004 1.208334,-3.6041668 0.520833,-2.6250001 0.229166,-3.8333334 -0.291666,-1.2083334 -1.520833,-1.2083334 z" />
        <path
           id="path4956"
           style="font-style:italic;font-variant:normal;font-weight:bold;font-stretch:normal;font-size:42.66666794px;font-family:'Tw Cen MT Condensed';-inkscape-font-specification:'Tw Cen MT Condensed, Bold Italic';text-align:center;letter-spacing:0px;text-anchor:middle;fill:#000000;fill-opacity:0.69491523"
           d="m 112.09407,6.3590874 h -5.125 l 5.5625,-27.8125004 h 5.125 z" />
        <path
           id="path4958"
           style="font-style:italic;font-variant:normal;font-weight:bold;font-stretch:normal;font-size:42.66666794px;font-family:'Tw Cen MT Condensed';-inkscape-font-specification:'Tw Cen MT Condensed, Bold Italic';text-align:center;letter-spacing:0px;text-anchor:middle;fill:#000000;fill-opacity:0.69491523"
           d="m 117.65657,-2.3909129 q 0.9375,-4.6666668 3.35417,-7.1458335 2.41667,-2.4999996 5.95833,-2.4999996 3.58334,0 4.97917,2.4374996 1.39583,2.4375001 0.45833,7.0833335 -0.89583,4.5416668 -3.25,6.9791669 -2.35416,2.4166667 -5.83333,2.4166667 -3.66667,0 -5.125,-2.375 -1.4375,-2.3958334 -0.54167,-6.8958336 z m 9.54167,-0.083333 q 0.58333,-2.9375001 0.41667,-4.1250001 -0.14584,-1.2083334 -1.45834,-1.2083334 -1.20833,0 -1.9375,1.125 -0.72916,1.1250001 -1.22916,3.6458335 -0.625,3.1458334 -0.47917,4.4375001 0.16667,1.2916667 1.5,1.2916667 1.27083,0 1.9375,-1.1458334 0.66667,-1.16666666 1.25,-4.0208334 z" />
        <path
           id="path4960"
           style="font-style:italic;font-variant:normal;font-weight:bold;font-stretch:normal;font-size:42.66666794px;font-family:'Tw Cen MT Condensed';-inkscape-font-specification:'Tw Cen MT Condensed, Bold Italic';text-align:center;letter-spacing:0px;text-anchor:middle;fill:#000000;fill-opacity:0.69491523"
           d="m 147.48991,-6.9117463 q -1.20833,-0.25 -1.72917,-0.25 -3.60416,0 -4.375,3.7916667 l -1.9375,9.729167 h -5.10416 l 3.58333,-17.8750004 h 4.77083 l -0.85416,4.2291666 h 0.0833 q 2.125,-4.6874996 6.60417,-4.7916666 z" />
        <path
           id="path4962"
           style="font-style:italic;font-variant:normal;font-weight:bold;font-stretch:normal;font-size:42.66666794px;font-family:'Tw Cen MT Condensed';-inkscape-font-specification:'Tw Cen MT Condensed, Bold Italic';text-align:center;letter-spacing:0px;text-anchor:middle;fill:#000000;fill-opacity:0.69491523"
           d="m 163.01075,-1.4950795 h -9 q -0.4375,2.8958334 -0.125,3.7916668 0.33333,0.8958333 1.625,0.8958333 1.64583,0 2.22916,-2.125 h 4.47917 q -0.83333,2.8125 -2.85417,4.3125001 -2.02083,1.5 -4.875,1.5 -3.64583,0 -5.0625,-2.4375 -1.39583,-2.4583334 -0.45833,-7.1666669 0.83333,-4.1875001 3.45833,-6.7500002 2.625,-2.5624996 6.02084,-2.5624996 2.41666,0 3.75,1.416666 1.33333,1.3958336 1.41666,3.5000003 0.10417,2.1041667 -0.60416,5.6250002 z m -4.16667,-2.9375001 q 0.41667,-2.2708334 0.1875,-3.3541668 -0.20833,-1.0833333 -1.27083,-1.0833333 -1.22917,0 -1.95834,1.0833333 -0.70833,1.0625001 -1.1875,3.3541668 z" />
      </g>
    </g>
    <g
       id="g4820"
       style="fill:#ffffff;fill-opacity:1"
       transform="translate(-7.9100081,-53.818328)">
      <g
         id="flowRoot4549-5"
         style="font-style:normal;font-variant:normal;font-weight:normal;font-stretch:normal;font-size:8px;line-height:25px;font-family:sans-serif;-inkscape-font-specification:'sans-serif, Normal';font-variant-ligatures:normal;font-variant-caps:normal;font-variant-numeric:normal;font-feature-settings:normal;text-align:justify;letter-spacing:0px;word-spacing:0px;writing-mode:lr-tb;text-anchor:start;fill:#ffffff;fill-opacity:1;stroke:none"
         transform="translate(-11.614812,43.359948)"
         aria-label="Columns
">
        <path
           id="path4965"
           style="font-style:italic;font-variant:normal;font-weight:bold;font-stretch:normal;font-size:42.66666794px;line-height:25px;font-family:'Tw Cen MT Condensed';-inkscape-font-specification:'Tw Cen MT Condensed, Bold Italic';text-align:center;letter-spacing:0px;text-anchor:middle;fill:#ffffff;fill-opacity:1"
           d="m 67.948241,5.9424207 q -2.333334,0.9375 -4.958334,0.9375 -4.708333,0 -7.1875,-3.4375001 -2.458333,-3.43750007 -1.145833,-10.0208336 1.354166,-6.791667 5.166667,-10.208334 3.8125,-3.4375 7.979167,-3.4375 2.5,0 5.083333,1.291667 l -1.104167,5.458333 q -1.979166,-1.125 -2.604166,-1.270833 -0.625,-0.145833 -1.375,-0.145833 -2.208334,0 -4.250001,1.833333 -2.020833,1.833334 -2.916666,6.3125003 -0.9375,4.6875002 0.3125,6.50000022 1.25,1.79166668 3.645833,1.79166668 1.958333,0 4.541667,-1.54166667 z" />
        <path
           id="path4967"
           style="font-style:italic;font-variant:normal;font-weight:bold;font-stretch:normal;font-size:42.66666794px;line-height:25px;font-family:'Tw Cen MT Condensed';-inkscape-font-specification:'Tw Cen MT Condensed, Bold Italic';text-align:center;letter-spacing:0px;text-anchor:middle;fill:#ffffff;fill-opacity:1"
           d="m 72.323242,-2.3909129 q 0.9375,-4.6666668 3.354166,-7.1458335 2.416667,-2.4999996 5.958334,-2.4999996 3.583333,0 4.979167,2.4374996 1.395833,2.4375001 0.458333,7.0833335 -0.895833,4.5416668 -3.25,6.9791669 -2.354167,2.4166667 -5.833333,2.4166667 -3.666667,0 -5.125001,-2.375 -1.4375,-2.3958334 -0.541666,-6.8958336 z m 9.541667,-0.083333 q 0.583333,-2.9375001 0.416666,-4.1250001 -0.145833,-1.2083334 -1.458333,-1.2083334 -1.208333,0 -1.9375,1.125 -0.729167,1.1250001 -1.229167,3.6458335 -0.625,3.1458334 -0.479167,4.4375001 0.166667,1.2916667 1.500001,1.2916667 1.270833,0 1.9375,-1.1458334 0.666666,-1.16666666 1.25,-4.0208334 z" />
        <path
           id="path4969"
           style="font-style:italic;font-variant:normal;font-weight:bold;font-stretch:normal;font-size:42.66666794px;line-height:25px;font-family:'Tw Cen MT Condensed';-inkscape-font-specification:'Tw Cen MT Condensed, Bold Italic';text-align:center;letter-spacing:0px;text-anchor:middle;fill:#ffffff;fill-opacity:1"
           d="m 94.344074,6.3590874 h -5.125 l 5.5625,-27.8125004 h 5.125 z" />
        <path
           id="path4971"
           style="font-style:italic;font-variant:normal;font-weight:bold;font-stretch:normal;font-size:42.66666794px;line-height:25px;font-family:'Tw Cen MT Condensed';-inkscape-font-specification:'Tw Cen MT Condensed, Bold Italic';text-align:center;letter-spacing:0px;text-anchor:middle;fill:#ffffff;fill-opacity:1"
           d="m 114.51074,-0.12007947 q -0.625,3.14583347 -2.95833,5.08333347 -2.33334,1.9166667 -5.52084,1.9166667 -3.45833,0 -5.02083,-1.9166667 -1.541666,-1.9375 -0.85417,-5.39583348 l 2.22917,-11.08333352 h 5.125 l -2.27083,11.35416686 q -0.58334,2.85416674 1.625,2.85416674 2,0 2.54166,-2.68750007 l 2.3125,-11.52083353 h 5.08334 z" />
        <path
           id="path4973"
           style="font-style:italic;font-variant:normal;font-weight:bold;font-stretch:normal;font-size:42.66666794px;line-height:25px;font-family:'Tw Cen MT Condensed';-inkscape-font-specification:'Tw Cen MT Condensed, Bold Italic';text-align:center;letter-spacing:0px;text-anchor:middle;fill:#ffffff;fill-opacity:1"
           d="m 141.28158,6.3590874 h -5.08333 l 1.9375,-9.729167 q 0.70833,-3.5000001 -1.4375,-3.5000001 -0.97917,0 -1.72917,0.8958334 -0.75,0.8958333 -1.0625,2.4375001 l -1.97917,9.8958336 h -5.08333 l 2.02083,-10.0625003 q 0.29167,-1.5000001 -0.125,-2.3333334 -0.39583,-0.8333334 -1.41666,-0.8333334 -0.875,0 -1.64584,0.9166667 -0.77083,0.9166667 -1.04166,2.3333334 l -2,9.979167 h -5.08334 l 3.58334,-17.8750004 h 5.08333 l -0.6875,3.375 h 0.0833 q 2.8125,-3.895833 5.6875,-3.895833 1.66667,0 2.54167,1.229166 0.89583,1.2083336 0.60417,3.291667 h 0.0833 q 1.20833,-2.0833334 2.97917,-3.291667 1.77083,-1.229166 3.4375,-1.229166 1.75,0 2.54166,1.645833 0.8125,1.6249999 0.29167,4.2083333 z" />
        <path
           id="path4975"
           style="font-style:italic;font-variant:normal;font-weight:bold;font-stretch:normal;font-size:42.66666794px;line-height:25px;font-family:'Tw Cen MT Condensed';-inkscape-font-specification:'Tw Cen MT Condensed, Bold Italic';text-align:center;letter-spacing:0px;text-anchor:middle;fill:#ffffff;fill-opacity:1"
           d="m 154.26075,-11.515913 -0.66667,3.2916666 h 0.0833 q 1.5625,-1.9791666 2.89584,-2.8958336 1.35416,-0.916666 2.89583,-0.916666 1.89583,0 2.70833,1.645833 0.8125,1.6249999 0.27084,4.3333334 l -2.47917,12.416667 h -5.04167 l 2.0625,-10.3333337 q 0.27084,-1.3333333 -0.14583,-2.0833333 -0.39583,-0.7708334 -1.39583,-0.7708334 -2.125,0 -2.79167,3.2916668 l -1.97917,9.8958336 h -5.08333 l 3.58333,-17.8750004 z" />
        <path
           id="path4977"
           style="font-style:italic;font-variant:normal;font-weight:bold;font-stretch:normal;font-size:42.66666794px;line-height:25px;font-family:'Tw Cen MT Condensed';-inkscape-font-specification:'Tw Cen MT Condensed, Bold Italic';text-align:center;letter-spacing:0px;text-anchor:middle;fill:#ffffff;fill-opacity:1"
           d="m 175.71908,-6.578413 q -1.75,-1.6458334 -3.04167,-1.6458334 -1.45833,0 -1.6875,1.1458334 -0.14583,0.75 2,2.0208334 2.14583,1.25 2.9375,2.7708334 0.79167,1.52083337 0.375,3.6458334 -0.47917,2.3958334 -2.45833,3.9583335 -1.97917,1.5625 -4.5625,1.5625 -1.83334,0 -3.10417,-0.5 -1.25,-0.4791667 -2.58333,-1.5625 l 2.89583,-3.7083335 q 0.16667,0.1041667 0.41667,0.3333334 1.60416,1.5 2.72916,1.5 0.6875,0 1.1875,-0.375 0.5,-0.3958333 0.625,-0.9791667 0.10417,-0.5208333 -0.45833,-1.10416669 -0.54167,-0.60416668 -2.27083,-1.79166671 -1.70834,-1.1875 -2.35417,-2.3333334 -0.64583,-1.1666667 -0.3125,-2.7916668 0.47917,-2.4583334 2.45833,-4.0208333 1.97917,-1.583333 4.60417,-1.583333 2.91667,0 5.27083,1.979166 z" />
      </g>
      <g
         id="flowRoot4549-5-3"
         style="font-style:normal;font-variant:normal;font-weight:normal;font-stretch:normal;font-size:8px;line-height:25px;font-family:sans-serif;-inkscape-font-specification:'sans-serif, Normal';font-variant-ligatures:normal;font-variant-caps:normal;font-variant-numeric:normal;font-feature-settings:normal;text-align:justify;letter-spacing:0px;word-spacing:0px;writing-mode:lr-tb;text-anchor:start;fill:#ffffff;fill-opacity:1;stroke:none"
         transform="translate(-11.167803,93.372254)"
         aria-label="Galore
">
        <path
           id="path4980"
           style="font-style:italic;font-variant:normal;font-weight:bold;font-stretch:normal;font-size:42.66666794px;font-family:'Tw Cen MT Condensed';-inkscape-font-specification:'Tw Cen MT Condensed, Bold Italic';text-align:center;letter-spacing:0px;text-anchor:middle;fill:#ffffff;fill-opacity:1"
           d="m 86.885741,-4.1409129 q -0.333333,1.6666667 -1.645833,4.29166677 -1.3125,2.60416673 -4,4.66666683 -2.666667,2.0625 -5.75,2.0625 -9.562501,0 -6.8125,-13.7500004 1.291666,-6.5000003 4.479166,-9.9375003 3.1875,-3.458333 7.770834,-3.458333 6.604167,0 6.666667,6.479166 l -5.354167,2.145834 q 0.541667,-3.5 -2.479167,-3.5 -1.3125,0 -2.291667,0.833333 -0.979166,0.8125 -1.520833,2.270834 -0.541667,1.458333 -1.25,4.9999997 -0.833333,4.1666667 -0.875,5.7291668 -0.04167,1.5416667 0.625,2.3333334 0.6875,0.7708334 2.020833,0.7708334 3.125001,0 4.354167,-5.1666669 h -3.458333 l 1.020833,-5.0416668 h 9.354167 z" />
        <path
           id="path4982"
           style="font-style:italic;font-variant:normal;font-weight:bold;font-stretch:normal;font-size:42.66666794px;font-family:'Tw Cen MT Condensed';-inkscape-font-specification:'Tw Cen MT Condensed, Bold Italic';text-align:center;letter-spacing:0px;text-anchor:middle;fill:#ffffff;fill-opacity:1"
           d="M 102.40657,6.3590874 H 97.344074 L 97.948241,3.338254 h -0.08333 q -1.958334,3.5416667 -4.895834,3.5416667 -2.083333,0 -3.25,-2.0208334 -1.145833,-2.0208334 -0.104167,-7.2500002 1.937501,-9.6458331 7.270834,-9.6458331 2.895833,0 3.270829,3.7083329 h 0.0833 l 0.64583,-3.1874999 h 5.10417 z M 97.739908,-7.5575797 q -1.833334,0 -2.75,4.5625001 -0.541667,2.72916679 -0.291667,3.97916683 0.25,1.22916667 1.416667,1.22916667 1.104166,0 1.791666,-1.125 0.708334,-1.12500004 1.208334,-3.6041668 0.520833,-2.6250001 0.229166,-3.8333334 -0.291666,-1.2083334 -1.520833,-1.2083334 z" />
        <path
           id="path4984"
           style="font-style:italic;font-variant:normal;font-weight:bold;font-stretch:normal;font-size:42.66666794px;font-family:'Tw Cen MT Condensed';-inkscape-font-specification:'Tw Cen MT Condensed, Bold Italic';text-align:center;letter-spacing:0px;text-anchor:middle;fill:#ffffff;fill-opacity:1"
           d="m 112.09407,6.3590874 h -5.125 l 5.5625,-27.8125004 h 5.125 z" />
        <path
           id="path4986"
           style="font-style:italic;font-variant:normal;font-weight:bold;font-stretch:normal;font-size:42.66666794px;font-family:'Tw Cen MT Condensed';-inkscape-font-specification:'Tw Cen MT Condensed, Bold Italic';text-align:center;letter-spacing:0px;text-anchor:middle;fill:#ffffff;fill-opacity:1"
           d="m 117.65657,-2.3909129 q 0.9375,-4.6666668 3.35417,-7.1458335 2.41667,-2.4999996 5.95833,-2.4999996 3.58334,0 4.97917,2.4374996 1.39583,2.4375001 0.45833,7.0833335 -0.89583,4.5416668 -3.25,6.9791669 -2.35416,2.4166667 -5.83333,2.4166667 -3.66667,0 -5.125,-2.375 -1.4375,-2.3958334 -0.54167,-6.8958336 z m 9.54167,-0.083333 q 0.58333,-2.9375001 0.41667,-4.1250001 -0.14584,-1.2083334 -1.45834,-1.2083334 -1.20833,0 -1.9375,1.125 -0.72916,1.1250001 -1.22916,3.6458335 -0.625,3.1458334 -0.47917,4.4375001 0.16667,1.2916667 1.5,1.2916667 1.27083,0 1.9375,-1.1458334 0.66667,-1.16666666 1.25,-4.0208334 z" />
        <path
           id="path4988"
           style="font-style:italic;font-variant:normal;font-weight:bold;font-stretch:normal;font-size:42.66666794px;font-family:'Tw Cen MT Condensed';-inkscape-font-specification:'Tw Cen MT Condensed, Bold Italic';text-align:center;letter-spacing:0px;text-anchor:middle;fill:#ffffff;fill-opacity:1"
           d="m 147.48991,-6.9117463 q -1.20833,-0.25 -1.72917,-0.25 -3.60416,0 -4.375,3.7916667 l -1.9375,9.729167 h -5.10416 l 3.58333,-17.8750004 h 4.77083 l -0.85416,4.2291666 h 0.0833 q 2.125,-4.6874996 6.60417,-4.7916666 z" />
        <path
           id="path4990"
           style="font-style:italic;font-variant:normal;font-weight:bold;font-stretch:normal;font-size:42.66666794px;font-family:'Tw Cen MT Condensed';-inkscape-font-specification:'Tw Cen MT Condensed, Bold Italic';text-align:center;letter-spacing:0px;text-anchor:middle;fill:#ffffff;fill-opacity:1"
           d="m 163.01075,-1.4950795 h -9 q -0.4375,2.8958334 -0.125,3.7916668 0.33333,0.8958333 1.625,0.8958333 1.64583,0 2.22916,-2.125 h 4.47917 q -0.83333,2.8125 -2.85417,4.3125001 -2.02083,1.5 -4.875,1.5 -3.64583,0 -5.0625,-2.4375 -1.39583,-2.4583334 -0.45833,-7.1666669 0.83333,-4.1875001 3.45833,-6.7500002 2.625,-2.5624996 6.02084,-2.5624996 2.41666,0 3.75,1.416666 1.33333,1.3958336 1.41666,3.5000003 0.10417,2.1041667 -0.60416,5.6250002 z m -4.16667,-2.9375001 q 0.41667,-2.2708334 0.1875,-3.3541668 -0.20833,-1.0833333 -1.27083,-1.0833333 -1.22917,0 -1.95834,1.0833333 -0.70833,1.0625001 -1.1875,3.3541668 z" />
      </g>
    </g>
  </g>
</svg>
